<svg width="73" height="85" viewBox="0 0 73 85" fill="none" xmlns="http://www.w3.org/2000/svg">
<path d="M32.9608 5.98407L33.9986 6.97851L35.0364 5.98407C39.5186 1.68913 44.2576 0.785033 47.7122 1.9975C51.1254 3.19539 53.7478 6.62003 53.7478 12.028C53.7478 14.7842 52.1865 17.819 49.6682 20.8616C47.1813 23.8661 43.935 26.6702 40.9528 28.9383C37.4613 31.5864 36.1748 32.4996 33.9986 32.4996C31.8224 32.4996 30.5358 31.5863 27.0439 28.9379C24.062 26.6721 20.8158 23.8691 18.3291 20.8648C15.811 17.8225 14.2495 14.7865 14.2495 12.028C14.2495 6.62003 16.8719 3.19539 20.285 1.9975C23.7396 0.785033 28.4786 1.68913 32.9608 5.98407ZM9.60564 80.8966H9.60461H8.49966C6.45342 80.8966 5.07028 80.8935 4.03652 80.7544C3.0462 80.6212 2.60353 80.3885 2.30586 80.0908L2.30405 80.089C2.00805 79.794 1.77548 79.3537 1.64225 78.3638C1.50319 77.3306 1.5 75.9475 1.5 73.9012V69.1754C1.5 66.8222 1.54434 66.1962 1.86592 65.6345C2.19083 65.0709 2.63321 64.7665 4.44726 63.7106C9.92325 60.5256 16.5414 58.0437 23.0543 57.1305C29.5784 56.2157 35.8521 56.892 40.7886 59.8336C41.3866 60.1934 41.9124 60.6185 42.3546 61.1119L42.3546 61.1119L42.3634 61.1216C42.7992 61.5991 43.1348 62.1591 43.3506 62.7685L44.7646 62.2678L43.3506 62.7685C43.5664 63.3779 43.658 64.0243 43.6199 64.6697C43.5818 65.315 43.4148 65.9462 43.1288 66.526C42.8428 67.1057 42.4435 67.6223 41.9546 68.0453L41.9281 68.0682L41.9026 68.0924C41.5725 68.4062 41.1694 68.6328 40.7297 68.7517L41.2952 71.6895C41.8262 71.6276 42.3336 71.557 42.8166 71.4823L42.8233 71.4813C47.0757 70.8044 50.5731 68.5378 53.5889 66.2587C53.5891 66.2586 53.5893 66.2584 53.5895 66.2583L61.2615 60.4661C62.3739 59.6603 63.7124 59.2264 65.0861 59.2264C66.4596 59.2264 67.7978 59.6601 68.91 60.4656C70.8121 61.91 71.2402 64.0962 70.1712 65.8103C68.3788 68.6833 65.9355 72.2163 63.6638 74.3215C61.4001 76.4154 57.9437 78.3514 55.0121 79.7666L55.0117 79.7668C51.9119 81.2645 48.4483 82.1434 44.8387 82.7305C37.5497 83.908 29.9475 83.7259 22.7286 82.2406L22.7284 82.2406C18.4115 81.353 14.0149 80.8997 9.60564 80.8966Z" stroke="url(#paint0_linear_760_9779)" stroke-width="3"/>
<defs>
<linearGradient id="paint0_linear_760_9779" x1="36.1239" y1="0" x2="36.1239" y2="85" gradientUnits="userSpaceOnUse">
<stop stop-color="white"/>
<stop offset="1" stop-color="white" stop-opacity="0"/>
</linearGradient>
</defs>
</svg>
