<?xml version="1.0" encoding="utf-8"?>
<!-- Generator: Adobe Illustrator 28.0.0, SVG Export Plug-In . SVG Version: 6.00 Build 0)  -->
<svg version="1.1" id="Layer_1" xmlns="http://www.w3.org/2000/svg" xmlns:xlink="http://www.w3.org/1999/xlink" x="0px" y="0px"
	 viewBox="0 0 105 103" style="enable-background:new 0 0 105 103;" xml:space="preserve">
<style type="text/css">
	.st0{fill:none;stroke:#74B9FF;stroke-width:5;stroke-linecap:round;}
	.st1{fill:none;stroke:#74B9FF;stroke-width:5;}
</style>
<path class="st0" d="M62.4,99.5H42.6c-18.7,0-28,0-33.8-5.8C3,87.9,3,78.6,3,59.9V50c0-18.7,0-28,5.8-33.8
	c5.8-5.8,15.1-5.8,33.8-5.8h19.8c18.7,0,28,0,33.8,5.8C102,22,102,31.4,102,50v9.9c0,18.7,0,28-5.8,33.8c-3.2,3.2-7.6,4.7-14,5.3
	 M27.8,10.4V3 M77.2,10.4V3 M99.5,35.2H46.3 M3,35.2h19.2"/>
<path class="st1" d="M82.2,74.8c0,1.3-0.5,2.6-1.4,3.5c-0.9,0.9-2.2,1.4-3.5,1.4s-2.6-0.5-3.5-1.4c-0.9-0.9-1.4-2.2-1.4-3.5
	c0-1.3,0.5-2.6,1.4-3.5s2.2-1.4,3.5-1.4s2.6,0.5,3.5,1.4S82.2,73.5,82.2,74.8z M82.2,55c0,1.3-0.5,2.6-1.4,3.5
	c-0.9,0.9-2.2,1.4-3.5,1.4s-2.6-0.5-3.5-1.4c-0.9-0.9-1.4-2.2-1.4-3.5c0-1.3,0.5-2.6,1.4-3.5s2.2-1.4,3.5-1.4s2.6,0.5,3.5,1.4
	S82.2,53.7,82.2,55z M57.5,74.8c0,1.3-0.5,2.6-1.4,3.5c-0.9,0.9-2.2,1.4-3.5,1.4c-1.3,0-2.6-0.5-3.5-1.4c-0.9-0.9-1.4-2.2-1.4-3.5
	c0-1.3,0.5-2.6,1.4-3.5c0.9-0.9,2.2-1.4,3.5-1.4c1.3,0,2.6,0.5,3.5,1.4S57.5,73.5,57.5,74.8z M57.5,55c0,1.3-0.5,2.6-1.4,3.5
	c-0.9,0.9-2.2,1.4-3.5,1.4c-1.3,0-2.6-0.5-3.5-1.4c-0.9-0.9-1.4-2.2-1.4-3.5c0-1.3,0.5-2.6,1.4-3.5c0.9-0.9,2.2-1.4,3.5-1.4
	c1.3,0,2.6,0.5,3.5,1.4S57.5,53.7,57.5,55z M32.7,74.8c0,1.3-0.5,2.6-1.4,3.5c-0.9,0.9-2.2,1.4-3.5,1.4c-1.3,0-2.6-0.5-3.5-1.4
	c-0.9-0.9-1.4-2.2-1.4-3.5c0-1.3,0.5-2.6,1.4-3.5c0.9-0.9,2.2-1.4,3.5-1.4c1.3,0,2.6,0.5,3.5,1.4S32.7,73.5,32.7,74.8z M32.7,55
	c0,1.3-0.5,2.6-1.4,3.5c-0.9,0.9-2.2,1.4-3.5,1.4c-1.3,0-2.6-0.5-3.5-1.4c-0.9-0.9-1.4-2.2-1.4-3.5c0-1.3,0.5-2.6,1.4-3.5
	c0.9-0.9,2.2-1.4,3.5-1.4c1.3,0,2.6,0.5,3.5,1.4S32.7,53.7,32.7,55z"/>
</svg>
