<svg width="85" height="85" viewBox="0 0 85 85" fill="none" xmlns="http://www.w3.org/2000/svg">
<mask id="path-1-inside-1_760_9629" fill="white">
<path d="M18.1057 82.3966H17.0007C12.9931 82.3966 10.9914 82.3966 9.74621 81.1514C8.50099 79.9104 8.50099 77.9087 8.50099 73.9011V69.1752C8.50099 66.9738 8.50099 65.8731 9.06623 64.8871C9.63146 63.9054 10.4857 63.4082 12.1941 62.4137C23.4393 55.8731 39.4019 52.1927 50.0605 58.5463C50.7745 58.9755 51.4205 59.494 51.973 60.1103C52.5437 60.7358 52.9834 61.4693 53.2661 62.2675C53.5488 63.0658 53.6687 63.9125 53.6188 64.7579C53.5688 65.6032 53.3501 66.43 52.9755 67.1894C52.6009 67.9488 52.0779 68.6255 51.4375 69.1795C50.9267 69.665 50.303 70.0155 49.6228 70.1995C50.1328 70.14 50.6215 70.072 51.089 69.9997C54.9606 69.3835 58.2118 67.3096 61.1867 65.0614L68.8705 59.2603C70.2413 58.2632 71.8928 57.7261 73.5879 57.7261C75.2829 57.7261 76.9344 58.2632 78.3052 59.2603C80.7404 61.1005 81.4884 64.1306 79.9457 66.6041C78.148 69.4855 75.6151 73.1701 73.1841 75.4226C70.7489 77.675 67.1238 79.6894 64.1659 81.1174C60.885 82.7026 57.2641 83.6121 53.5794 84.2113C46.1082 85.4183 38.3224 85.2313 30.9276 83.7098C26.7087 82.8424 22.4129 82.3996 18.1057 82.3966ZM37.6594 5.79258C39.8141 1.92944 40.8893 0 42.5 0C44.1107 0 45.1859 1.92944 47.3406 5.79258L47.8931 6.7913C48.5093 7.89202 48.8153 8.44026 49.2913 8.8015C49.7673 9.16273 50.3623 9.29873 51.5522 9.56647L52.6317 9.81297C56.8136 10.7564 58.9045 11.2324 59.4018 12.8304C59.899 14.4283 58.4753 16.0985 55.6236 19.4304L54.8842 20.2932C54.0767 21.2409 53.6729 21.7126 53.4902 22.2991C53.3074 22.8856 53.3669 23.5188 53.4902 24.781L53.6007 25.9285C54.0342 30.3781 54.2467 32.6008 52.9462 33.591C51.6457 34.5812 49.6866 33.676 45.7724 31.8741L44.7567 31.4066C43.6475 30.8966 43.0907 30.6416 42.5 30.6416C41.9093 30.6416 41.3525 30.8966 40.2433 31.4066L39.2276 31.8741C35.3177 33.6803 33.3543 34.5812 32.0538 33.591C30.7533 32.6008 30.9658 30.3781 31.3993 25.9328L31.5098 24.781C31.6331 23.5188 31.6926 22.8856 31.5098 22.2991C31.3271 21.7126 30.9233 21.2366 30.1159 20.2932L29.3764 19.4304C26.529 16.0985 25.101 14.4283 25.5982 12.8304C26.0955 11.2324 28.1864 10.7564 32.3683 9.81297L33.4478 9.56647C34.6377 9.29873 35.2327 9.16273 35.7087 8.8015C36.1847 8.44026 36.4907 7.89202 37.1027 6.7913L37.6594 5.79258ZM74.0766 24.1478C75.1561 22.2141 75.6916 21.2494 76.499 21.2494C77.3065 21.2494 77.842 22.2141 78.9215 24.1478L79.1977 24.645C79.5037 25.1975 79.6567 25.4695 79.8947 25.6523C80.1327 25.8308 80.4302 25.8988 81.0251 26.0347L81.5649 26.1537C83.6558 26.6297 84.7013 26.8635 84.9478 27.6667C85.1985 28.4657 84.4846 29.2987 83.0608 30.9646L82.6911 31.3938C82.2874 31.8698 82.0834 32.1078 81.9941 32.4011C81.9006 32.6901 81.9346 33.0088 81.9941 33.642L82.0494 34.2158C82.2619 36.4384 82.3724 37.5519 81.7221 38.0449C81.0719 38.5379 80.0944 38.0874 78.1352 37.1864L77.6252 36.9527C77.0728 36.6977 76.7923 36.5702 76.499 36.5702C76.2015 36.5702 75.9253 36.6977 75.3686 36.9527L74.8628 37.1864C72.9079 38.0874 71.9304 38.5379 71.2759 38.0449C70.6257 37.5519 70.7319 36.4384 70.9487 34.2158L71.0039 33.642C71.0634 33.0045 71.0974 32.6901 71.0039 32.4011C70.9147 32.1036 70.7107 31.8698 70.307 31.3938L69.9372 30.9646C68.5135 29.2987 67.7995 28.4657 68.0503 27.6667C68.2968 26.8635 69.3422 26.6297 71.4332 26.1537L71.9729 26.0347C72.5679 25.8988 72.8654 25.8308 73.1034 25.6523C73.3414 25.4695 73.4944 25.1933 73.8004 24.645L74.0766 24.1478ZM6.07856 24.1478C7.16228 22.2141 7.69352 21.2494 8.50099 21.2494C9.30847 21.2494 9.84396 22.2141 10.9234 24.1478L11.1997 24.645C11.5057 25.1975 11.6587 25.4695 11.8966 25.6523C12.1346 25.8308 12.4321 25.8988 13.0271 26.0347L13.5668 26.1537C15.6578 26.6297 16.7033 26.8635 16.954 27.6667C17.2005 28.4657 16.4865 29.2987 15.0628 30.9646L14.6931 31.3938C14.2893 31.8698 14.0853 32.1078 13.9961 32.4011C13.9026 32.6901 13.9366 33.0088 13.9961 33.642L14.0513 34.2158C14.2638 36.4384 14.3743 37.5519 13.7241 38.0449C13.0739 38.5379 12.0921 38.0874 10.1372 37.1864L9.62721 36.9527C9.07473 36.6977 8.79423 36.5702 8.50099 36.5702C8.2035 36.5702 7.92726 36.6977 7.37053 36.9527L6.86479 37.1864C4.90985 38.0874 3.93238 38.5379 3.27789 38.0449C2.62766 37.5519 2.73391 36.4384 2.95065 34.2158L3.0059 33.642C3.0654 33.0045 3.0994 32.6901 3.0059 32.4011C2.91666 32.1036 2.71266 31.8698 2.30892 31.3938L1.93918 30.9646C0.515475 29.2987 -0.198505 28.4657 0.0479879 27.6667C0.298731 26.8635 1.3442 26.6297 3.43514 26.1537L3.97487 26.0347C4.56986 25.8988 4.86735 25.8308 5.10534 25.6523C5.34334 25.4695 5.49633 25.1933 5.80232 24.645L6.07856 24.1478Z"/>
</mask>
<path d="M18.1057 82.3966H17.0007C12.9931 82.3966 10.9914 82.3966 9.74621 81.1514C8.50099 79.9104 8.50099 77.9087 8.50099 73.9011V69.1752C8.50099 66.9738 8.50099 65.8731 9.06623 64.8871C9.63146 63.9054 10.4857 63.4082 12.1941 62.4137C23.4393 55.8731 39.4019 52.1927 50.0605 58.5463C50.7745 58.9755 51.4205 59.494 51.973 60.1103C52.5437 60.7358 52.9834 61.4693 53.2661 62.2675C53.5488 63.0658 53.6687 63.9125 53.6188 64.7579C53.5688 65.6032 53.3501 66.43 52.9755 67.1894C52.6009 67.9488 52.0779 68.6255 51.4375 69.1795C50.9267 69.665 50.303 70.0155 49.6228 70.1995C50.1328 70.14 50.6215 70.072 51.089 69.9997C54.9606 69.3835 58.2118 67.3096 61.1867 65.0614L68.8705 59.2603C70.2413 58.2632 71.8928 57.7261 73.5879 57.7261C75.2829 57.7261 76.9344 58.2632 78.3052 59.2603C80.7404 61.1005 81.4884 64.1306 79.9457 66.6041C78.148 69.4855 75.6151 73.1701 73.1841 75.4226C70.7489 77.675 67.1238 79.6894 64.1659 81.1174C60.885 82.7026 57.2641 83.6121 53.5794 84.2113C46.1082 85.4183 38.3224 85.2313 30.9276 83.7098C26.7087 82.8424 22.4129 82.3996 18.1057 82.3966ZM37.6594 5.79258C39.8141 1.92944 40.8893 0 42.5 0C44.1107 0 45.1859 1.92944 47.3406 5.79258L47.8931 6.7913C48.5093 7.89202 48.8153 8.44026 49.2913 8.8015C49.7673 9.16273 50.3623 9.29873 51.5522 9.56647L52.6317 9.81297C56.8136 10.7564 58.9045 11.2324 59.4018 12.8304C59.899 14.4283 58.4753 16.0985 55.6236 19.4304L54.8842 20.2932C54.0767 21.2409 53.6729 21.7126 53.4902 22.2991C53.3074 22.8856 53.3669 23.5188 53.4902 24.781L53.6007 25.9285C54.0342 30.3781 54.2467 32.6008 52.9462 33.591C51.6457 34.5812 49.6866 33.676 45.7724 31.8741L44.7567 31.4066C43.6475 30.8966 43.0907 30.6416 42.5 30.6416C41.9093 30.6416 41.3525 30.8966 40.2433 31.4066L39.2276 31.8741C35.3177 33.6803 33.3543 34.5812 32.0538 33.591C30.7533 32.6008 30.9658 30.3781 31.3993 25.9328L31.5098 24.781C31.6331 23.5188 31.6926 22.8856 31.5098 22.2991C31.3271 21.7126 30.9233 21.2366 30.1159 20.2932L29.3764 19.4304C26.529 16.0985 25.101 14.4283 25.5982 12.8304C26.0955 11.2324 28.1864 10.7564 32.3683 9.81297L33.4478 9.56647C34.6377 9.29873 35.2327 9.16273 35.7087 8.8015C36.1847 8.44026 36.4907 7.89202 37.1027 6.7913L37.6594 5.79258ZM74.0766 24.1478C75.1561 22.2141 75.6916 21.2494 76.499 21.2494C77.3065 21.2494 77.842 22.2141 78.9215 24.1478L79.1977 24.645C79.5037 25.1975 79.6567 25.4695 79.8947 25.6523C80.1327 25.8308 80.4302 25.8988 81.0251 26.0347L81.5649 26.1537C83.6558 26.6297 84.7013 26.8635 84.9478 27.6667C85.1985 28.4657 84.4846 29.2987 83.0608 30.9646L82.6911 31.3938C82.2874 31.8698 82.0834 32.1078 81.9941 32.4011C81.9006 32.6901 81.9346 33.0088 81.9941 33.642L82.0494 34.2158C82.2619 36.4384 82.3724 37.5519 81.7221 38.0449C81.0719 38.5379 80.0944 38.0874 78.1352 37.1864L77.6252 36.9527C77.0728 36.6977 76.7923 36.5702 76.499 36.5702C76.2015 36.5702 75.9253 36.6977 75.3686 36.9527L74.8628 37.1864C72.9079 38.0874 71.9304 38.5379 71.2759 38.0449C70.6257 37.5519 70.7319 36.4384 70.9487 34.2158L71.0039 33.642C71.0634 33.0045 71.0974 32.6901 71.0039 32.4011C70.9147 32.1036 70.7107 31.8698 70.307 31.3938L69.9372 30.9646C68.5135 29.2987 67.7995 28.4657 68.0503 27.6667C68.2968 26.8635 69.3422 26.6297 71.4332 26.1537L71.9729 26.0347C72.5679 25.8988 72.8654 25.8308 73.1034 25.6523C73.3414 25.4695 73.4944 25.1933 73.8004 24.645L74.0766 24.1478ZM6.07856 24.1478C7.16228 22.2141 7.69352 21.2494 8.50099 21.2494C9.30847 21.2494 9.84396 22.2141 10.9234 24.1478L11.1997 24.645C11.5057 25.1975 11.6587 25.4695 11.8966 25.6523C12.1346 25.8308 12.4321 25.8988 13.0271 26.0347L13.5668 26.1537C15.6578 26.6297 16.7033 26.8635 16.954 27.6667C17.2005 28.4657 16.4865 29.2987 15.0628 30.9646L14.6931 31.3938C14.2893 31.8698 14.0853 32.1078 13.9961 32.4011C13.9026 32.6901 13.9366 33.0088 13.9961 33.642L14.0513 34.2158C14.2638 36.4384 14.3743 37.5519 13.7241 38.0449C13.0739 38.5379 12.0921 38.0874 10.1372 37.1864L9.62721 36.9527C9.07473 36.6977 8.79423 36.5702 8.50099 36.5702C8.2035 36.5702 7.92726 36.6977 7.37053 36.9527L6.86479 37.1864C4.90985 38.0874 3.93238 38.5379 3.27789 38.0449C2.62766 37.5519 2.73391 36.4384 2.95065 34.2158L3.0059 33.642C3.0654 33.0045 3.0994 32.6901 3.0059 32.4011C2.91666 32.1036 2.71266 31.8698 2.30892 31.3938L1.93918 30.9646C0.515475 29.2987 -0.198505 28.4657 0.0479879 27.6667C0.298731 26.8635 1.3442 26.6297 3.43514 26.1537L3.97487 26.0347C4.56986 25.8988 4.86735 25.8308 5.10534 25.6523C5.34334 25.4695 5.49633 25.1933 5.80232 24.645L6.07856 24.1478Z" stroke="url(#paint0_linear_760_9629)" stroke-width="6" mask="url(#path-1-inside-1_760_9629)"/>
<defs>
<linearGradient id="paint0_linear_760_9629" x1="42.4986" y1="0" x2="42.4986" y2="85" gradientUnits="userSpaceOnUse">
<stop stop-color="white"/>
<stop offset="1" stop-color="white" stop-opacity="0"/>
</linearGradient>
</defs>
</svg>
