<svg width="80" height="89" viewBox="0 0 80 89" fill="none" xmlns="http://www.w3.org/2000/svg">
<path d="M60.4575 2H20.0409C15.1152 2 12.6545 2 10.6656 2.69274C8.79041 3.35765 7.09376 4.44584 5.70735 5.87278C4.32095 7.29973 3.2821 9.02703 2.67149 10.9206C2 12.969 2 15.502 2 20.5721V80.0878C2 83.7342 6.18616 85.6722 8.83385 83.2497C9.57668 82.5633 10.5509 82.1822 11.5623 82.1822C12.5737 82.1822 13.5479 82.5633 14.2907 83.2497L16.3434 85.1282C17.6448 86.3316 19.3521 87 21.1246 87C22.8971 87 24.6044 86.3316 25.9057 85.1282C27.2071 83.9248 28.9144 83.2564 30.6869 83.2564C32.4594 83.2564 34.1667 83.9248 35.468 85.1282C36.7694 86.3316 38.4767 87 40.2492 87C42.0217 87 43.729 86.3316 45.0303 85.1282C46.3317 83.9248 48.039 83.2564 49.8115 83.2564C51.5839 83.2564 53.2912 83.9248 54.5926 85.1282C55.894 86.3316 57.6013 87 59.3737 87C61.1462 87 62.8535 86.3316 64.1549 85.1282L66.2076 83.2497C66.9504 82.5633 67.9247 82.1822 68.936 82.1822C69.9474 82.1822 70.9217 82.5633 71.6645 83.2497C74.3122 85.6722 78.4983 83.7342 78.4983 80.0878V20.5721C78.4983 15.502 78.4983 12.9648 77.8268 10.9248C77.2171 9.03034 76.1786 7.30204 74.7921 5.87429C73.4056 4.44653 71.7085 3.3578 69.8328 2.69274C67.8438 2 65.3831 2 60.4575 2Z" stroke="url(#paint0_linear_760_9646)" stroke-width="3"/>
<path d="M33.8747 40.2497H61.4991M19 40.2497H21.125M19 25.375H21.125M19 55.1243H21.125M33.8747 25.375H61.4991M33.8747 55.1243H61.4991" stroke="url(#paint1_linear_760_9646)" stroke-width="3" stroke-linecap="round"/>
<defs>
<linearGradient id="paint0_linear_760_9646" x1="40.2492" y1="2" x2="40.2492" y2="87" gradientUnits="userSpaceOnUse">
<stop stop-color="white"/>
<stop offset="1" stop-color="white" stop-opacity="0"/>
</linearGradient>
<linearGradient id="paint1_linear_760_9646" x1="40.2495" y1="25.375" x2="40.2495" y2="55.1243" gradientUnits="userSpaceOnUse">
<stop stop-color="white"/>
<stop offset="1" stop-color="white" stop-opacity="0"/>
</linearGradient>
</defs>
</svg>
