<svg width="90" height="85" viewBox="0 0 90 85" fill="none" xmlns="http://www.w3.org/2000/svg">
<path d="M61.1316 17.8947V19.3947H62.6316H80.5263C82.5015 19.3947 84.3957 20.1794 85.7924 21.576C87.189 22.9727 87.9737 24.8669 87.9737 26.8421V76.0526C87.9737 78.0278 87.189 79.9221 85.7924 81.3187C84.3957 82.7154 82.5015 83.5 80.5263 83.5H8.94737C6.9722 83.5 5.07793 82.7154 3.68129 81.3187C2.28463 79.9221 1.5 78.0278 1.5 76.0526V26.8421C1.5 22.7047 4.81001 19.3947 8.94737 19.3947H26.8421H28.3421V17.8947V8.94737C28.3421 4.81001 31.6521 1.5 35.7895 1.5H53.6842C55.6594 1.5 57.5536 2.28463 58.9503 3.68128C60.3469 5.07794 61.1316 6.9722 61.1316 8.94737V17.8947ZM35.7895 7.44737H34.2895V8.94737V17.8947V19.3947H35.7895H53.6842H55.1842V17.8947V8.94737V7.44737H53.6842H35.7895ZM67.1053 77.5526H68.6053V76.0526V70.4605C68.6053 66.499 65.4296 63.3154 61.2221 61.2117C56.9245 59.0628 51.0931 57.7763 44.7368 57.7763C38.3805 57.7763 32.5492 59.0628 28.2515 61.2117C24.0441 63.3154 20.8684 66.499 20.8684 70.4605V76.0526V77.5526H22.3684H67.1053ZM53.7059 33.5309C51.3272 31.1522 48.1009 29.8158 44.7368 29.8158C41.3728 29.8158 38.1465 31.1522 35.7677 33.5309C33.389 35.9097 32.0526 39.1359 32.0526 42.5C32.0526 45.8641 33.389 49.0903 35.7677 51.4691C38.1465 53.8478 41.3728 55.1842 44.7368 55.1842C48.1009 55.1842 51.3272 53.8478 53.7059 51.4691C56.0847 49.0903 57.421 45.8641 57.421 42.5C57.421 39.1359 56.0847 35.9097 53.7059 33.5309Z" stroke="url(#paint0_linear_760_9649)" stroke-width="3"/>
<defs>
<linearGradient id="paint0_linear_760_9649" x1="44.7368" y1="0" x2="44.7368" y2="85" gradientUnits="userSpaceOnUse">
<stop stop-color="white"/>
<stop offset="1" stop-color="white" stop-opacity="0"/>
</linearGradient>
</defs>
</svg>
