<svg width="86" height="86" viewBox="0 0 86 86" fill="none" xmlns="http://www.w3.org/2000/svg">
<path fill-rule="evenodd" clip-rule="evenodd" d="M36.442 3.66158C34.9322 3.86492 34.1278 4.23764 33.5543 4.81371L33.5507 4.81734C32.9735 5.39325 32.6007 6.19963 32.3974 7.7093C32.1882 9.26233 32.185 11.3198 32.185 14.2646L32.185 32.7376L32.185 82.5515H53.8157V53.2631V30.685C53.8157 29.8566 54.4873 29.185 55.3157 29.185C56.1441 29.185 56.8157 29.8566 56.8157 30.685V47.1848C58.1449 46.1662 59.7802 45.6055 61.4734 45.6055H73.7887C75.8196 45.6055 77.7674 46.4123 79.2035 47.8484C80.6396 49.2844 81.4464 51.2322 81.4464 53.2631V82.5515H84.0515C84.8799 82.5515 85.5515 83.2231 85.5515 84.0515C85.5515 84.8799 84.8799 85.5515 84.0515 85.5515L55.3157 85.5515H30.685H6.05433L1.94922 85.5515C1.12079 85.5515 0.449219 84.8799 0.449219 84.0515C0.449219 83.2231 1.12079 82.5515 1.94922 82.5515H4.55433V74.815C4.55433 73.9866 5.22591 73.315 6.05433 73.315C6.88276 73.315 7.55433 73.9866 7.55433 74.815V82.5515H29.185L29.185 32.7376C29.185 31.5023 28.6943 30.3176 27.8208 29.4441C26.9473 28.5706 25.7626 28.0799 24.5273 28.0799H12.212C10.9767 28.0799 9.79202 28.5706 8.91853 29.4441C8.04505 30.3176 7.55433 31.5023 7.55433 32.7376V59.4208C7.55433 60.2492 6.88276 60.9208 6.05433 60.9208C5.22591 60.9208 4.55433 60.2492 4.55433 59.4208V32.7376C4.55433 30.7066 5.36112 28.7589 6.79721 27.3228C8.2333 25.8867 10.1811 25.0799 12.212 25.0799H24.5273C26.2205 25.0799 27.8558 25.6406 29.185 26.6592V14.2646L29.185 14.1543C29.185 11.3457 29.1849 9.0855 29.4242 7.30887C29.6723 5.46659 30.2023 3.92135 31.43 2.69541C32.6543 1.46653 34.1994 0.936527 36.0416 0.688425C37.8182 0.449148 40.0794 0.44918 42.89 0.44922L43.0004 0.449222L43.1106 0.44922H43.1106C45.9193 0.44918 48.1794 0.449148 49.956 0.688425C51.7984 0.936558 53.3437 1.46654 54.5697 2.69442C55.7984 3.91868 56.3284 5.46374 56.5765 7.30579C56.8158 9.08239 56.8157 11.3435 56.8157 14.1541V14.1542V14.2646C56.8157 15.093 56.1441 15.7646 55.3157 15.7646C54.4873 15.7646 53.8157 15.093 53.8157 14.2646C53.8157 11.3177 53.8125 9.25924 53.6033 7.70622C53.4 6.19643 53.0273 5.392 52.4512 4.81855L52.4476 4.81492C51.8717 4.2377 51.0653 3.8649 49.5556 3.66158C48.0026 3.45242 45.9452 3.44922 43.0004 3.44922C40.0535 3.44922 37.995 3.45242 36.442 3.66158ZM56.8157 82.5515V53.2631C56.8157 52.0279 57.3064 50.8432 58.1799 49.9697C59.0534 49.0962 60.2381 48.6055 61.4734 48.6055H73.7887C75.024 48.6055 76.2087 49.0962 77.0822 49.9697C77.9557 50.8432 78.4464 52.0279 78.4464 53.2631V82.5515H56.8157Z" fill="url(#paint0_linear_760_9656)"/>
<defs>
<linearGradient id="paint0_linear_760_9656" x1="43.0004" y1="0.449219" x2="43.0004" y2="85.5515" gradientUnits="userSpaceOnUse">
<stop stop-color="white"/>
<stop offset="1" stop-color="white" stop-opacity="0"/>
</linearGradient>
</defs>
</svg>
