<svg width="73" height="82" viewBox="0 0 73 82" fill="none" xmlns="http://www.w3.org/2000/svg">
<path d="M35.5155 12.0154V18.6769M35.5155 25.3384H35.531M50.585 27.0037L38.1949 3.68852C37.9247 3.17592 37.533 2.74956 37.0595 2.45292C36.5861 2.15629 36.048 2 35.5 2C34.9521 2 34.414 2.15629 33.9405 2.45292C33.4671 2.74956 33.0753 3.17592 32.8052 3.68852L20.4151 27.0037C20.142 27.5123 19.9988 28.0894 20 28.6766C20.0012 29.2638 20.1468 29.8403 20.4219 30.3475C20.6971 30.8548 21.0921 31.2747 21.5669 31.5649C22.0416 31.8551 22.5793 32.0051 23.1254 31.9999H47.9056C48.4491 31.9993 48.9829 31.8449 49.4533 31.5524C49.9237 31.2598 50.3143 30.8393 50.5858 30.333C50.8573 29.8268 51.0001 29.2526 51 28.6683C50.9999 28.0839 50.8567 27.5098 50.585 27.0037Z" stroke="url(#paint0_linear_760_9795)" stroke-width="3" stroke-linecap="round" stroke-linejoin="round"/>
<path d="M9.60461 77.8957H9.60564C14.0149 77.8987 18.4115 78.352 22.7284 79.2396L22.7286 79.2397C29.9475 80.7249 37.5497 80.9071 44.8387 79.7296C48.4483 79.1424 51.9119 78.2636 55.0117 76.7659L55.0121 76.7657C57.9433 75.3506 61.3991 73.415 63.6629 71.3214C65.9347 69.2164 68.3785 65.6829 70.1711 62.8095C71.2402 61.0954 70.8122 58.9092 68.9101 57.4647C67.7979 56.6592 66.4596 56.2254 65.0861 56.2254C63.7123 56.2254 62.3737 56.6594 61.2614 57.4653L53.5895 63.2574C53.5893 63.2575 53.5891 63.2576 53.5889 63.2578C50.5731 65.5368 47.0757 67.8035 42.8233 68.4803L42.8166 68.4814C42.3336 68.556 41.8262 68.6266 41.2952 68.6886L40.7297 65.7507C41.1694 65.6318 41.5725 65.4052 41.9026 65.0915L41.9281 65.0673L41.9546 65.0443C42.4435 64.6214 42.8428 64.1048 43.1288 63.525C43.4148 62.9452 43.5818 62.3141 43.6199 61.6687C43.658 61.0234 43.5664 60.377 43.3506 59.7676C43.1348 59.1582 42.7992 58.5982 42.3634 58.1206L42.3546 58.1109L42.3546 58.1109C41.9124 57.6176 41.3866 57.1925 40.7887 56.8327C35.8522 53.891 29.5784 53.2148 23.0543 54.1296C16.5416 55.0428 9.92361 57.5245 4.4477 60.7094L9.60461 77.8957ZM9.60461 77.8957H8.49966C6.45342 77.8957 5.07028 77.8925 4.03652 77.7534C3.0462 77.6202 2.60353 77.3875 2.30586 77.0898L2.30405 77.088M9.60461 77.8957L2.30405 77.088M2.30405 77.088C2.00805 76.793 1.77548 76.3527 1.64225 75.3628M2.30405 77.088L1.64225 75.3628M1.64225 75.3628C1.50319 74.3296 1.5 72.9466 1.5 70.9003M1.64225 75.3628L1.5 70.9003M1.5 70.9003V66.1745M1.5 70.9003V66.1745M1.5 66.1745C1.5 63.8212 1.54434 63.1952 1.86591 62.6335M1.5 66.1745L1.86591 62.6335M1.86591 62.6335C2.19083 62.0699 2.63321 61.7656 4.44726 60.7096L1.86591 62.6335Z" stroke="url(#paint1_linear_760_9795)" stroke-width="3"/>
<defs>
<linearGradient id="paint0_linear_760_9795" x1="35.5" y1="2" x2="35.5" y2="32" gradientUnits="userSpaceOnUse">
<stop stop-color="white"/>
<stop offset="1" stop-color="white" stop-opacity="0"/>
</linearGradient>
<linearGradient id="paint1_linear_760_9795" x1="36.1239" y1="52.25" x2="36.1239" y2="81.9991" gradientUnits="userSpaceOnUse">
<stop stop-color="white"/>
<stop offset="1" stop-color="white" stop-opacity="0"/>
</linearGradient>
</defs>
</svg>
