<svg width="68" height="86" viewBox="0 0 68 86" fill="none" xmlns="http://www.w3.org/2000/svg">
<path d="M33.9082 25.4611C32.7013 23.9678 31.5448 22.7487 30.4385 21.804C29.3322 20.8592 27.7459 20.3914 25.6796 20.4005C23.5219 20.4005 21.6873 21.1563 20.1756 22.668C18.664 24.1796 17.9082 26.0142 17.9082 28.1719C17.9082 31.9205 19.5402 35.2226 22.8042 38.0782C26.0682 40.9339 28.9467 43.4939 31.4396 45.7582C32.101 46.4196 32.9238 46.7502 33.9082 46.7502C34.8926 46.7502 35.7154 46.418 36.3768 45.7537L45.0122 38.1194C48.2762 35.2302 49.9082 31.9144 49.9082 28.1719C49.9082 26.0173 49.1524 24.1826 47.6408 22.668C46.1292 21.1563 44.2945 20.4005 42.1368 20.4005C40.0674 20.4005 38.4812 20.8714 37.3779 21.8131C36.2716 22.7548 35.1151 23.9678 33.9082 25.4611Z" fill="url(#paint0_linear_760_9452)"/>
<path fill-rule="evenodd" clip-rule="evenodd" d="M0.5 7C0.5 3.41015 3.41015 0.5 7 0.5H61C64.5899 0.5 67.5 3.41015 67.5 7V79C67.5 82.5899 64.5899 85.5 61 85.5H7C3.41015 85.5 0.5 82.5899 0.5 79V7ZM7 3.5C5.067 3.5 3.5 5.067 3.5 7V79C3.5 80.933 5.067 82.5 7 82.5H61C62.933 82.5 64.5 80.933 64.5 79V7C64.5 5.067 62.933 3.5 61 3.5H7ZM53.0172 57.1543H14.6172V54.1543H53.0172V57.1543ZM14.6172 68.6738H53.0172V65.6738H14.6172V68.6738Z" fill="url(#paint1_linear_760_9452)"/>
<defs>
<linearGradient id="paint0_linear_760_9452" x1="33.9082" y1="20.4004" x2="33.9082" y2="46.7502" gradientUnits="userSpaceOnUse">
<stop stop-color="white"/>
<stop offset="1" stop-color="white" stop-opacity="0"/>
</linearGradient>
<linearGradient id="paint1_linear_760_9452" x1="34" y1="0.5" x2="34" y2="85.5" gradientUnits="userSpaceOnUse">
<stop stop-color="white"/>
<stop offset="1" stop-color="white" stop-opacity="0"/>
</linearGradient>
</defs>
</svg>
