<svg width="89" height="90" viewBox="0 0 89 90" fill="none" xmlns="http://www.w3.org/2000/svg">
<path fill-rule="evenodd" clip-rule="evenodd" d="M19.2852 7.87622V3.5H25.9816H29.8066H34.8025H39.9545H42.3744H49.0709V7.87826C48.8776 8.23305 48.7679 8.63984 48.7679 9.07226V16.2857H19.5893V9.07227C19.5893 8.63901 19.4791 8.23149 19.2852 7.87622ZM16.2852 6.57227V3C16.2852 1.61929 17.4044 0.5 18.7852 0.5H25.9816H29.8066H34.8025H39.9545H42.3744H49.5709C50.9516 0.5 52.0709 1.61929 52.0709 3V6.57227H65.3571C66.7379 6.57227 67.8571 7.69156 67.8571 9.07227V86.0008C67.8571 87.3816 66.7378 88.5008 65.3571 88.5008H3C1.61928 88.5008 0.5 87.3815 0.5 86.0008V9.07227C0.5 7.69155 1.61929 6.57227 3 6.57227H16.2852ZM16.2852 9.57227H3.5V85.5008H64.8571V9.57227H52.0709V16.7857C52.0709 17.3077 51.9109 17.7924 51.6372 18.1933C51.3038 19.1819 50.3689 19.8937 49.2679 19.8937H34.485H19.0893C17.9894 19.8937 17.0554 19.1834 16.721 18.1965C16.446 17.795 16.2852 17.3091 16.2852 16.7857V9.57227ZM57.8571 59.0723H10.5V56.0723H57.8571V59.0723ZM10.5 71.2148H57.8571V68.2148H10.5V71.2148ZM15.0723 41.1426H10.5V38.1426H15.0723V33.572H18.0723V38.1426H22.6429V41.1426H18.0723V45.7148H15.0723V41.1426Z" fill="url(#paint0_linear_760_9442)"/>
<path d="M74.8574 14.1437C74.8574 10.7905 77.5757 8.07227 80.9289 8.07227V8.07227C84.282 8.07227 87.0003 10.7905 87.0003 14.1437V80.0366L80.9289 87.0008L74.8574 80.0366V14.1437Z" stroke="url(#paint1_linear_760_9442)" stroke-width="3"/>
<defs>
<linearGradient id="paint0_linear_760_9442" x1="34.1786" y1="0.5" x2="34.1786" y2="88.5008" gradientUnits="userSpaceOnUse">
<stop stop-color="white"/>
<stop offset="1" stop-color="white" stop-opacity="0"/>
</linearGradient>
<linearGradient id="paint1_linear_760_9442" x1="80.9289" y1="8.07227" x2="80.9289" y2="87.0008" gradientUnits="userSpaceOnUse">
<stop stop-color="white"/>
<stop offset="1" stop-color="white" stop-opacity="0"/>
</linearGradient>
</defs>
</svg>
