<svg width="105" height="105" viewBox="0 0 105 105" fill="none" xmlns="http://www.w3.org/2000/svg">
<path d="M102 102H3" stroke="#2ECC71" stroke-width="5" stroke-linecap="round"/>
<path d="M97.0496 102V64.8752C97.0496 62.906 96.2673 61.0174 94.8749 59.6249C93.4824 58.2325 91.5938 57.4502 89.6246 57.4502H74.7746C72.8054 57.4502 70.9168 58.2325 69.5243 59.6249C68.1319 61.0174 67.3496 62.906 67.3496 64.8752V102" stroke="#2ECC71" stroke-width="5"/>
<path d="M67.3504 102V37.65M37.6504 102V17.85C37.6504 10.8507 37.6504 7.35105 39.8284 5.178C41.9965 3 45.4961 3 52.5004 3C59.4997 3 62.9993 3 65.1724 5.178C67.3504 7.3461 67.3504 10.8457 67.3504 17.85" stroke="#2ECC71" stroke-width="5" stroke-linecap="round" stroke-linejoin="round"/>
<path d="M37.6512 102V40.1252C37.6512 38.156 36.8689 36.2674 35.4764 34.8749C34.084 33.4825 32.1954 32.7002 30.2262 32.7002H15.3762C13.4069 32.7002 11.5184 33.4825 10.1259 34.8749C8.73345 36.2674 7.95117 38.156 7.95117 40.1252V72.3002M7.95117 102V90.8627" stroke="#2ECC71" stroke-width="5" stroke-linecap="round"/>
</svg>
