<?xml version="1.0" encoding="utf-8"?>
<!-- Generator: Adobe Illustrator 28.0.0, SVG Export Plug-In . SVG Version: 6.00 Build 0)  -->
<svg version="1.1" id="Layer_1" xmlns="http://www.w3.org/2000/svg" xmlns:xlink="http://www.w3.org/1999/xlink" x="0px" y="0px"
	 viewBox="0 0 105 105" style="enable-background:new 0 0 105 105;" xml:space="preserve">
<style type="text/css">
	.st0{fill:none;stroke:#74B9FF;stroke-width:5;stroke-linecap:round;}
	.st1{fill:none;stroke:#74B9FF;stroke-width:5;}
	.st2{fill:none;stroke:#74B9FF;stroke-width:5;stroke-linecap:round;stroke-linejoin:round;}
</style>
<path class="st0" d="M102,102H3"/>
<path class="st1" d="M97,102V64.9c0-2-0.8-3.9-2.2-5.3c-1.4-1.4-3.3-2.2-5.3-2.2H74.8c-2,0-3.9,0.8-5.3,2.2
	c-1.4,1.4-2.2,3.3-2.2,5.3V102"/>
<path class="st2" d="M67.4,102V37.6 M37.7,102V17.8c0-7,0-10.5,2.2-12.7C42,3,45.5,3,52.5,3c7,0,10.5,0,12.7,2.2
	c2.2,2.2,2.2,5.7,2.2,12.7"/>
<path class="st0" d="M37.7,102V40.1c0-2-0.8-3.9-2.2-5.3c-1.4-1.4-3.3-2.2-5.3-2.2H15.4c-2,0-3.9,0.8-5.3,2.2
	C8.7,36.3,8,38.2,8,40.1v32.2 M8,102V90.9"/>
</svg>
