<svg width="81" height="82" viewBox="0 0 81 82" fill="none" xmlns="http://www.w3.org/2000/svg">
<path d="M5.0625 69.8261V20.6522M5.0625 69.8261C5.0625 69.8261 5.0625 80 0 80M5.0625 69.8261H75.9375M75.9375 69.8261C75.9375 69.8261 75.9375 80 81 80M75.9375 69.8261V51.1739C75.9375 48.0259 74.693 45.0068 72.4777 42.7809C70.2624 40.5549 67.2579 39.3043 64.125 39.3043H35.4375V52.8696M5.0625 59.6522H75.9375M54 32.5217V25.7391C54 25.7391 48.9375 22.3478 40.5 22.3478C32.0625 22.3478 27 25.7391 27 25.7391V32.5217M28.6875 45.7478C28.6875 45.7478 25.3125 51.1739 21.0937 51.1739C19.5273 51.1739 18.025 50.5486 16.9174 49.4357C15.8098 48.3227 15.1875 46.8131 15.1875 45.2391C15.1875 41.9631 17.8335 39.3179 21.0937 39.3179C25.3125 39.3179 28.6875 44.7304 28.6875 44.7304V45.7478ZM40.0005 15.5652C40.0005 15.5652 34.6005 12.1739 34.6005 7.93478C34.6005 4.65878 37.2465 2 40.5067 2C43.7704 2 46.3995 4.65878 46.3995 7.93478C46.3995 12.1739 41.013 15.5652 41.013 15.5652H40.0005Z" stroke="url(#paint0_linear_760_9441)" stroke-width="3"/>
<defs>
<linearGradient id="paint0_linear_760_9441" x1="40.5" y1="2" x2="40.5" y2="80" gradientUnits="userSpaceOnUse">
<stop stop-color="white"/>
<stop offset="1" stop-color="white" stop-opacity="0"/>
</linearGradient>
</defs>
</svg>
