<svg width="109" height="85" viewBox="0 0 109 85" fill="none" xmlns="http://www.w3.org/2000/svg">
<path d="M37.5067 80.0064C58.2215 82.7644 77.2487 68.2083 80.0067 47.4935C82.7646 26.7787 68.2086 7.75148 47.4938 4.99354C26.7789 2.23561 7.7517 16.7916 4.99376 37.5064C4.1948 43.5075 4.85002 49.3662 6.68206 54.7289C7.17191 56.153 7.18996 57.709 6.61139 59.1015L3.26819 67.1534C2.93802 67.95 2.8231 68.8195 2.93496 69.6746C3.04682 70.5297 3.38152 71.3404 3.90551 72.0253C4.42949 72.7102 5.12434 73.2454 5.92039 73.5771C6.71643 73.9088 7.58569 74.0253 8.441 73.9151L17.0871 72.795C18.5849 72.6233 20.0939 73.0047 21.3301 73.8676C26.1731 77.141 31.7113 79.2427 37.5067 80.0064Z" stroke="url(#paint0_linear_760_9630)" stroke-width="3"/>
<path d="M80.2853 64.3335C84.6265 63.3663 88.6831 61.4023 92.1344 58.5969C93.0135 57.86 94.1317 57.4698 95.2784 57.4996L101.906 57.7692C102.562 57.7954 103.213 57.6488 103.794 57.3441C104.375 57.0394 104.866 56.5872 105.217 56.033C105.569 55.4788 105.768 54.8419 105.795 54.1863C105.823 53.5308 105.677 52.8795 105.374 52.2978L102.301 46.4192C101.769 45.4025 101.678 44.222 101.954 43.1099C102.983 38.9226 103.087 34.4383 102.08 29.9436C98.6013 14.4284 83.2049 4.67109 67.6897 8.14937" stroke="url(#paint1_linear_760_9630)" stroke-width="3"/>
<defs>
<linearGradient id="paint0_linear_760_9630" x1="47.4938" y1="4.99354" x2="37.5067" y2="80.0065" gradientUnits="userSpaceOnUse">
<stop stop-color="white"/>
<stop offset="1" stop-color="white" stop-opacity="0"/>
</linearGradient>
<linearGradient id="paint1_linear_760_9630" x1="81.7357" y1="5.00046" x2="94.3313" y2="61.1846" gradientUnits="userSpaceOnUse">
<stop stop-color="white"/>
<stop offset="1" stop-color="white" stop-opacity="0"/>
</linearGradient>
</defs>
</svg>
