<svg width="89" height="89" viewBox="0 0 89 89" fill="none" xmlns="http://www.w3.org/2000/svg">
<path d="M30.5605 49.3567C30.5605 49.3567 35.6287 56.0596 44.0755 56.0596C52.5224 56.0596 57.5905 49.3567 57.5905 49.3567M33.9393 32.5996H33.9731M54.2118 32.5996H54.2456" stroke="white" stroke-width="3" stroke-linecap="round" stroke-linejoin="round"/>
<path d="M44.5 87C67.9727 87 87 67.9727 87 44.5C87 21.0272 67.9727 2 44.5 2C21.0272 2 2 21.0272 2 44.5C2 51.3 3.598 57.726 6.43275 63.4252C7.18925 64.9382 7.44 66.668 7.00225 68.3042L4.4735 77.7647C4.22398 78.7007 4.22492 79.6858 4.47622 80.6213C4.72752 81.5568 5.22035 82.4097 5.90528 83.0947C6.59022 83.7796 7.4432 84.2724 8.37869 84.5237C9.31417 84.775 10.2993 84.776 11.2352 84.5265L20.6957 81.9977C22.338 81.5844 24.0746 81.7855 25.579 82.563C31.4564 85.4896 37.9342 87.0087 44.5 87Z" stroke="url(#paint0_linear_760_9780)" stroke-width="3"/>
<defs>
<linearGradient id="paint0_linear_760_9780" x1="44.5" y1="2" x2="44.5" y2="87" gradientUnits="userSpaceOnUse">
<stop stop-color="white"/>
<stop offset="1" stop-color="white" stop-opacity="0"/>
</linearGradient>
</defs>
</svg>
