<svg width="105" height="103" viewBox="0 0 105 103" fill="none" xmlns="http://www.w3.org/2000/svg">
<path d="M62.4 99.525H42.6C23.9335 99.525 14.5978 99.525 8.8014 93.7236C3 87.9272 3 78.5915 3 59.925V50.025C3 31.3586 3 22.0229 8.8014 16.2264C14.5978 10.425 23.9335 10.425 42.6 10.425H62.4C81.0664 10.425 90.4021 10.425 96.1986 16.2264C102 22.0229 102 31.3586 102 50.025V59.925C102 78.5915 102 87.9272 96.1986 93.7236C92.9662 96.9609 88.635 98.3915 82.2 99.0201M27.75 10.425V3M77.25 10.425V3M99.525 35.175H46.3125M3 35.175H22.1812" stroke="#2ECC71" stroke-width="5" stroke-linecap="round"/>
<path d="M82.2008 74.7754C82.2008 76.0882 81.6793 77.3473 80.751 78.2756C79.8227 79.2039 78.5636 79.7254 77.2508 79.7254C75.938 79.7254 74.6789 79.2039 73.7506 78.2756C72.8223 77.3473 72.3008 76.0882 72.3008 74.7754C72.3008 73.4626 72.8223 72.2035 73.7506 71.2752C74.6789 70.3469 75.938 69.8254 77.2508 69.8254C78.5636 69.8254 79.8227 70.3469 80.751 71.2752C81.6793 72.2035 82.2008 73.4626 82.2008 74.7754ZM82.2008 54.9754C82.2008 56.2882 81.6793 57.5473 80.751 58.4756C79.8227 59.4039 78.5636 59.9254 77.2508 59.9254C75.938 59.9254 74.6789 59.4039 73.7506 58.4756C72.8223 57.5473 72.3008 56.2882 72.3008 54.9754C72.3008 53.6626 72.8223 52.4035 73.7506 51.4752C74.6789 50.5469 75.938 50.0254 77.2508 50.0254C78.5636 50.0254 79.8227 50.5469 80.751 51.4752C81.6793 52.4035 82.2008 53.6626 82.2008 54.9754ZM57.4508 74.7754C57.4508 76.0882 56.9293 77.3473 56.001 78.2756C55.0727 79.2039 53.8136 79.7254 52.5008 79.7254C51.188 79.7254 49.9289 79.2039 49.0006 78.2756C48.0723 77.3473 47.5508 76.0882 47.5508 74.7754C47.5508 73.4626 48.0723 72.2035 49.0006 71.2752C49.9289 70.3469 51.188 69.8254 52.5008 69.8254C53.8136 69.8254 55.0727 70.3469 56.001 71.2752C56.9293 72.2035 57.4508 73.4626 57.4508 74.7754ZM57.4508 54.9754C57.4508 56.2882 56.9293 57.5473 56.001 58.4756C55.0727 59.4039 53.8136 59.9254 52.5008 59.9254C51.188 59.9254 49.9289 59.4039 49.0006 58.4756C48.0723 57.5473 47.5508 56.2882 47.5508 54.9754C47.5508 53.6626 48.0723 52.4035 49.0006 51.4752C49.9289 50.5469 51.188 50.0254 52.5008 50.0254C53.8136 50.0254 55.0727 50.5469 56.001 51.4752C56.9293 52.4035 57.4508 53.6626 57.4508 54.9754ZM32.7008 74.7754C32.7008 76.0882 32.1793 77.3473 31.251 78.2756C30.3227 79.2039 29.0636 79.7254 27.7508 79.7254C26.438 79.7254 25.1789 79.2039 24.2506 78.2756C23.3223 77.3473 22.8008 76.0882 22.8008 74.7754C22.8008 73.4626 23.3223 72.2035 24.2506 71.2752C25.1789 70.3469 26.438 69.8254 27.7508 69.8254C29.0636 69.8254 30.3227 70.3469 31.251 71.2752C32.1793 72.2035 32.7008 73.4626 32.7008 74.7754ZM32.7008 54.9754C32.7008 56.2882 32.1793 57.5473 31.251 58.4756C30.3227 59.4039 29.0636 59.9254 27.7508 59.9254C26.438 59.9254 25.1789 59.4039 24.2506 58.4756C23.3223 57.5473 22.8008 56.2882 22.8008 54.9754C22.8008 53.6626 23.3223 52.4035 24.2506 51.4752C25.1789 50.5469 26.438 50.0254 27.7508 50.0254C29.0636 50.0254 30.3227 50.5469 31.251 51.4752C32.1793 52.4035 32.7008 53.6626 32.7008 54.9754Z" stroke="#2ECC71" stroke-width="5"/>
</svg>
