<svg width="85" height="91" viewBox="0 0 85 91" fill="none" xmlns="http://www.w3.org/2000/svg">
<path d="M76.0064 15.3125L76.0063 15.3127L69.9374 21.3815C69.5165 21.8031 69.0166 22.1376 68.4664 22.3659C67.9162 22.5943 67.3263 22.7121 66.7306 22.7125C66.1349 22.7129 65.5449 22.596 64.9943 22.3684L65.5674 20.9822L64.9943 22.3684C64.4438 22.1408 63.9434 21.807 63.5219 21.386C62.6705 20.5359 62.1918 19.3824 62.1909 18.1792C62.1901 16.9761 62.6672 15.8218 63.5174 14.9705L63.5181 14.9697L69.5863 8.90151L76.0064 15.3125ZM76.0064 15.3125C76.8566 14.4621 77.3342 13.3089 77.3342 12.1064C77.3342 10.9042 76.8567 9.75112 76.0069 8.90076M76.0064 15.3125L73.9601 9.30099M73.9601 9.30099L74.535 7.91554C75.0856 8.14401 75.5858 8.4788 76.0069 8.90076M73.9601 9.30099L74.535 7.91553C73.9841 7.68692 73.3935 7.56925 72.797 7.56925C72.2005 7.56925 71.6099 7.68692 71.0589 7.91553C70.5086 8.1439 70.0087 8.47849 69.5877 8.90017L73.9601 9.30099ZM76.0069 8.90076C76.0071 8.90101 76.0074 8.90126 76.0076 8.90151L74.9456 9.96083L76.0064 8.90033C76.0066 8.90048 76.0067 8.90062 76.0069 8.90076ZM17.9649 82.5528L17.9636 82.5533C16.1197 83.3679 14.0726 83.606 12.0909 83.2364C10.1096 82.8669 8.28619 81.9072 6.85993 80.4831C6.85973 80.4829 6.85952 80.4827 6.85931 80.4825L4.43312 78.0623L17.9649 82.5528ZM17.9649 82.5528L22.8032 80.4099C25.2036 84.1634 28.8147 87.0057 33.0584 88.4496C37.7414 90.0429 42.8523 89.817 47.3764 87.8168C51.9006 85.8165 55.5071 82.1882 57.4801 77.6521C59.2681 73.5412 59.5959 68.9572 58.4347 64.6555L71.3874 58.9308C72.8704 58.2765 74.1715 57.2703 75.1778 55.9996C76.1841 54.7288 76.8653 53.2318 77.1623 51.6383C77.4593 50.0448 77.3632 48.4029 76.8823 46.8549C76.4014 45.3069 75.5502 43.8996 74.4025 42.7549L74.4023 42.7547L42.0393 10.4888L42.0388 10.4883C40.8888 9.34272 39.477 8.49439 37.9256 8.01666C36.3742 7.53893 34.7298 7.44617 33.1345 7.74639C31.5392 8.0466 30.0409 8.73077 28.7693 9.73977C27.4977 10.7488 26.4909 12.0522 25.8359 13.5375L25.8351 13.5393L2.33981 67.0001L2.33946 67.0009M17.9649 82.5528L2.33946 67.0009M2.33946 67.0009C1.53218 68.8407 1.30013 70.8817 1.67378 72.8558C2.04734 74.8294 3.00884 76.6439 4.4321 78.0613L2.33946 67.0009ZM57.2035 1.63477L57.2028 1.63458C56.0362 1.34386 54.8019 1.52831 53.7712 2.14738L54.5436 3.43325L53.7712 2.14738C52.7407 2.7664 51.9981 3.76928 51.7067 4.93559C51.7067 4.93569 51.7066 4.9358 51.7066 4.93591L50.193 10.9905C50.0372 11.5678 49.9972 12.1702 50.0752 12.7632C50.1541 13.3624 50.3519 13.9398 50.657 14.4614C50.9622 14.9831 51.3686 15.4384 51.8522 15.8008C52.3359 16.1632 52.8871 16.4252 53.4735 16.5715C54.0599 16.7178 54.6696 16.7454 55.2668 16.6527C55.864 16.56 56.4367 16.3489 56.9511 16.0317C57.4655 15.7145 57.9114 15.2977 58.2625 14.8058C58.6097 14.3192 58.8573 13.7688 58.991 13.1863L60.5046 7.13204L60.5049 7.13094C60.7956 5.96434 60.6111 4.73004 59.9921 3.69939C59.373 2.66874 58.37 1.92612 57.2035 1.63477ZM69.5904 33.5187L70.6511 32.458L69.5904 33.5187C70.4408 34.3691 71.5943 34.8469 72.797 34.8469H78.8666C80.0693 34.8469 81.2227 34.3691 82.0731 33.5187C82.9236 32.6683 83.4013 31.5148 83.4013 30.3121C83.4013 29.1094 82.9236 27.956 82.0731 27.1055C81.2227 26.2551 80.0693 25.7773 78.8666 25.7773H72.797C71.5943 25.7773 70.4408 26.2551 69.5904 27.1055C68.74 27.956 68.2622 29.1094 68.2622 30.3121C68.2622 31.5148 68.74 32.6683 69.5904 33.5187ZM36.1921 79.9261C34.2702 79.3173 32.5727 78.1791 31.285 76.658L49.9551 68.4081C50.2125 70.3827 49.9119 72.4025 49.0696 74.2323C47.9856 76.5875 46.0788 78.4658 43.7075 79.5142C41.3362 80.5627 38.6637 80.7092 36.1921 79.9261Z" stroke="url(#paint0_linear_760_9633)" stroke-width="3"/>
<defs>
<linearGradient id="paint0_linear_760_9633" x1="42.4507" y1="3" x2="42.4507" y2="88" gradientUnits="userSpaceOnUse">
<stop stop-color="white"/>
<stop offset="1" stop-color="white" stop-opacity="0"/>
</linearGradient>
</defs>
</svg>
