<svg width="100" height="88" viewBox="0 0 100 88" fill="none" xmlns="http://www.w3.org/2000/svg">
<path fill-rule="evenodd" clip-rule="evenodd" d="M10.3611 1.2414C10.0797 0.959315 9.69765 0.800781 9.2992 0.800781C8.90075 0.800781 8.51867 0.959315 8.23726 1.2414L1.23884 8.25677C0.653762 8.84327 0.65491 9.79301 1.2414 10.3781C1.8279 10.9632 2.77765 10.962 3.36272 10.3755L7.7992 5.9283V26.8546C7.7992 27.683 8.47077 28.3546 9.2992 28.3546C10.1276 28.3546 10.7992 27.683 10.7992 26.8546V5.9283L15.2357 10.3755C15.8208 10.962 16.7705 10.9632 17.357 10.3781C17.9435 9.79301 17.9446 8.84327 17.3596 8.25677L10.3611 1.2414ZM28.2953 2.30078C28.2953 1.47235 27.6237 0.800781 26.7953 0.800781C25.9668 0.800781 25.2953 1.47235 25.2953 2.30078V23.227L20.8588 18.7798C20.2737 18.1933 19.3239 18.1922 18.7375 18.7773C18.151 19.3623 18.1498 20.3121 18.7349 20.8986L25.7333 27.9139C26.0147 28.196 26.3968 28.3546 26.7953 28.3546C27.1937 28.3546 27.5758 28.196 27.8572 27.9139L34.8556 20.8986C35.4407 20.3121 35.4395 19.3623 34.8531 18.7773C34.2666 18.1922 33.3168 18.1933 32.7317 18.7798L28.2953 23.227V2.30078ZM19.8011 65.1356C18.9726 65.1356 18.3011 65.8072 18.3011 66.6356V84.1991H12.1757C11.3472 84.1991 10.6757 84.8707 10.6757 85.6991C10.6757 86.5275 11.3472 87.1991 12.1757 87.1991H19.8011H61.7408H69.3661C70.1946 87.1991 70.8661 86.5275 70.8661 85.6991C70.8661 84.8707 70.1946 84.1991 69.3661 84.1991H63.2408V66.6356C63.2408 65.8072 62.5692 65.1356 61.7408 65.1356H19.8011ZM60.2408 84.1991H21.3011V68.1356H60.2408V84.1991ZM35.9761 35.557C33.584 37.9491 33.584 41.8275 35.9761 44.2196L48.0541 56.2977C50.4462 58.6898 54.3246 58.6898 56.7167 56.2977L84.054 28.9604C86.4461 26.5683 86.4461 22.6899 84.054 20.2977L71.976 8.21974C69.5839 5.82762 65.7055 5.82762 63.3134 8.21974L35.9761 35.557ZM33.8548 46.341C30.2911 42.7773 30.2911 36.9994 33.8548 33.4357L61.192 6.09842C64.7557 2.53473 70.5336 2.53473 74.0973 6.09842L86.1753 18.1764C89.739 21.7401 89.739 27.518 86.1753 31.0817L73.6075 43.6495L99.2548 69.2968C99.8406 69.8826 99.8406 70.8323 99.2548 71.4181C98.669 72.0039 97.7193 72.0039 97.1335 71.4181L71.4862 45.7708L58.838 58.419C55.2743 61.9827 49.4965 61.9827 45.9328 58.419L33.8548 46.341Z" fill="url(#paint0_linear_760_9637)"/>
<defs>
<linearGradient id="paint0_linear_760_9637" x1="50.2475" y1="0.800781" x2="50.2475" y2="87.1991" gradientUnits="userSpaceOnUse">
<stop stop-color="white"/>
<stop offset="1" stop-color="white" stop-opacity="0"/>
</linearGradient>
</defs>
</svg>
