<svg width="89" height="89" viewBox="0 0 89 89" fill="none" xmlns="http://www.w3.org/2000/svg">
<path d="M13.5933 62.0825C7.02712 55.5121 3.74191 52.2312 2.52218 47.9685C1.29819 43.7058 2.34368 39.1796 4.43465 30.1314L5.63739 24.9125C7.39261 17.2966 8.27236 13.4887 10.8776 10.8792C13.487 8.27397 17.295 7.39423 24.9109 5.639L30.1298 4.43201C39.1822 2.34529 43.7042 1.2998 47.9669 2.51954C52.2296 3.74352 55.5105 7.02873 62.0767 13.5949L69.8541 21.3723C81.2907 32.8047 86.9984 38.5166 86.9984 45.614C86.9984 52.7157 81.2822 58.4276 69.8541 69.8557C58.426 81.2923 52.7141 87 45.6124 87C38.515 87 32.7988 81.2838 21.3707 69.8557L13.5933 62.0825Z" stroke="url(#paint0_linear_760_9642)" stroke-width="3"/>
<path d="M58.9065 58.9078C61.3927 56.4131 61.7284 52.7156 59.6545 50.6374C57.5805 48.5634 53.8788 48.8992 51.3883 51.3896C48.9021 53.8801 45.2004 54.2158 43.1264 52.1419C41.0524 50.0679 41.3882 46.3662 43.8786 43.88M43.8786 43.88L42.3742 42.3755M43.8786 43.88C45.2854 42.469 47.0789 41.755 48.7491 41.7677M60.4067 60.408L58.9022 58.9035C57.2022 60.6078 54.9285 61.3048 52.999 60.9053" stroke="url(#paint1_linear_760_9642)" stroke-width="3" stroke-linecap="round"/>
<path d="M36.0886 37.2467C39.408 33.9272 39.408 28.5454 36.0886 25.226C32.7692 21.9066 27.3874 21.9066 24.068 25.226C20.7485 28.5454 20.7485 33.9272 24.0679 37.2467C27.3874 40.5661 32.7692 40.5661 36.0886 37.2467Z" stroke="url(#paint2_linear_760_9642)" stroke-width="3"/>
<defs>
<linearGradient id="paint0_linear_760_9642" x1="44.4992" y1="2" x2="44.4992" y2="87" gradientUnits="userSpaceOnUse">
<stop stop-color="white"/>
<stop offset="1" stop-color="white" stop-opacity="0"/>
</linearGradient>
<linearGradient id="paint1_linear_760_9642" x1="51.3906" y1="41.7676" x2="51.3906" y2="61.015" gradientUnits="userSpaceOnUse">
<stop stop-color="white"/>
<stop offset="1" stop-color="white" stop-opacity="0"/>
</linearGradient>
<linearGradient id="paint2_linear_760_9642" x1="24.068" y1="25.226" x2="36.0886" y2="37.2467" gradientUnits="userSpaceOnUse">
<stop stop-color="white"/>
<stop offset="1" stop-color="white" stop-opacity="0"/>
</linearGradient>
</defs>
</svg>
