<svg width="80" height="103" viewBox="0 0 80 103" fill="none" xmlns="http://www.w3.org/2000/svg">
<path d="M21.5 63.0476H58.5M21.5 44.5714H30.75M21.5 81.5238H40M30.75 12.2381H12.25C9.79675 12.2381 7.44397 13.2114 5.70926 14.9439C3.97455 16.6763 3 19.0261 3 21.4762V90.7619C3 93.212 3.97455 95.5617 5.70926 97.2942C7.44397 99.0267 9.79675 100 12.25 100H67.75C70.2033 100 72.556 99.0267 74.2907 97.2942C76.0254 95.5617 77 93.212 77 90.7619V21.4762C77 19.0261 76.0254 16.6763 74.2907 14.9439C72.556 13.2114 70.2033 12.2381 67.75 12.2381H51.5625M30.75 12.2381V3M30.75 12.2381V21.4762" stroke="#2ECC71" stroke-width="5" stroke-linecap="round" stroke-linejoin="round"/>
</svg>
