<?xml version="1.0" encoding="utf-8"?>
<!-- Generator: Adobe Illustrator 28.0.0, SVG Export Plug-In . SVG Version: 6.00 Build 0)  -->
<svg version="1.1" id="Layer_1" xmlns="http://www.w3.org/2000/svg" xmlns:xlink="http://www.w3.org/1999/xlink" x="0px" y="0px"
	 viewBox="0 0 80 103" style="enable-background:new 0 0 80 103;" xml:space="preserve">
<style type="text/css">
	.st0{fill:none;stroke:#74B9FF;stroke-width:5;stroke-linecap:round;stroke-linejoin:round;}
</style>
<path class="st0" d="M21.5,63h37 M21.5,44.6h9.2 M21.5,81.5H40 M30.8,12.2H12.2c-2.5,0-4.8,1-6.5,2.7C4,16.7,3,19,3,21.5v69.3
	c0,2.5,1,4.8,2.7,6.5c1.7,1.7,4.1,2.7,6.5,2.7h55.5c2.5,0,4.8-1,6.5-2.7c1.7-1.7,2.7-4.1,2.7-6.5V21.5c0-2.5-1-4.8-2.7-6.5
	c-1.7-1.7-4.1-2.7-6.5-2.7H51.6 M30.8,12.2V3 M30.8,12.2v9.2"/>
</svg>
