<svg width="85" height="77" viewBox="0 0 85 77" fill="none" xmlns="http://www.w3.org/2000/svg">
<path d="M42.5144 10.5473V16.2323M42.5144 21.9173H42.5283M55.9557 23.3385L44.9043 3.441C44.6633 3.00355 44.3139 2.63968 43.8916 2.38653C43.4693 2.13338 42.9894 2 42.5006 2C42.0119 2 41.5319 2.13338 41.1096 2.38653C40.6874 2.63968 40.3379 3.00355 40.0969 3.441L29.0455 23.3385C28.8019 23.7725 28.6742 24.2651 28.6753 24.7662C28.6764 25.2673 28.8062 25.7593 29.0517 26.1922C29.2971 26.625 29.6494 26.9835 30.0729 27.2311C30.4963 27.4787 30.9759 27.6068 31.463 27.6023H53.5659C54.0506 27.6018 54.5267 27.4701 54.9463 27.2204C55.3659 26.9707 55.7143 26.6118 55.9564 26.1798C56.1986 25.7478 56.326 25.2578 56.3259 24.7591C56.3258 24.2603 56.1981 23.7704 55.9557 23.3385Z" stroke="url(#paint0_linear_760_9626)" stroke-width="3" stroke-linecap="round" stroke-linejoin="round"/>
<path d="M47.9258 55.4602L47.8944 55.6112V55.7655C47.8944 56.4768 48.2471 57.0248 48.5581 57.3752C48.8794 57.737 49.2874 58.0391 49.7016 58.2915C50.5359 58.7998 51.6437 59.2546 52.8685 59.6355C55.3307 60.401 58.5383 60.9511 61.625 60.9511C64.8503 60.9511 67.8712 59.9422 70.0756 58.8157C71.1807 58.2509 72.1228 57.6353 72.8123 57.0603C73.1537 56.7756 73.4678 56.4721 73.7111 56.1618C73.897 55.9248 74.2694 55.4073 74.2694 54.7391C74.2694 54.2637 74.0933 53.8181 73.9492 53.515C73.7825 53.1645 73.5518 52.7883 73.2691 52.4043C72.7017 51.6336 71.8732 50.7613 70.7741 49.9243C68.5679 48.2442 65.2494 46.6893 60.7069 46.3858C54.6971 45.8182 49.1818 49.418 47.9258 55.4602ZM37.1056 55.7655V55.6112L37.0742 55.4602C35.8135 49.3953 29.7594 45.8187 24.3323 46.3863C19.8307 46.6881 16.5099 48.0935 14.2803 49.7032C13.1682 50.5061 12.3176 51.3673 11.731 52.1782C11.1912 52.9243 10.7306 53.8275 10.7306 54.6924C10.7306 55.0828 10.857 55.4007 10.9609 55.6044C11.0707 55.8195 11.2072 56.0077 11.3373 56.1642C11.5973 56.4767 11.9317 56.7811 12.2912 57.0653C13.018 57.64 14.0034 58.2542 15.133 58.8168C17.3763 59.9342 20.3967 60.9511 23.375 60.9511C26.2106 60.9511 29.4152 60.3982 31.9256 59.6388C33.1767 59.2604 34.3252 58.81 35.193 58.3107C35.6228 58.0634 36.0487 57.7675 36.3859 57.4129C36.7056 57.0767 37.1056 56.5165 37.1056 55.7655ZM65.875 75.2594C61.9263 75.2594 58.5959 72.9702 54.8677 70.2926C54.7598 70.2151 54.6515 70.1372 54.5427 70.0589C51.079 67.5679 47.1781 64.7624 42.5 64.7624C37.7707 64.7624 33.7104 67.6289 30.1404 70.1493C30.076 70.1948 30.0118 70.2401 29.9476 70.2854C26.1266 72.9818 22.8103 75.2594 19.125 75.2594C14.0557 75.2594 9.72027 73.0126 6.6022 68.6656C3.45256 64.2745 1.5 57.6627 1.5 48.9541C1.5 43.481 2.32942 40.5815 4.35698 38.8841C6.48657 37.1013 10.3387 36.2715 17.5194 36.2715C24.4349 36.2715 28.7639 37.6611 32.2301 39.0556C32.8223 39.2938 33.404 39.5403 33.9813 39.7849C36.7129 40.942 39.3436 42.0565 42.5 42.0565C45.6774 42.0565 48.399 40.929 51.2201 39.7602C51.7876 39.5251 52.3591 39.2883 52.9392 39.0587C56.4769 37.6584 60.8065 36.2715 67.4806 36.2715C74.3738 36.2715 78.2571 37.2151 80.4622 39.0734C82.5788 40.8572 83.5 43.8042 83.5 48.9541C83.5 57.6627 81.5474 64.2745 78.3978 68.6656C75.2797 73.0126 70.9443 75.2594 65.875 75.2594Z" stroke="url(#paint1_linear_760_9626)" stroke-width="3"/>
<defs>
<linearGradient id="paint0_linear_760_9626" x1="42.5006" y1="2" x2="42.5006" y2="27.6024" gradientUnits="userSpaceOnUse">
<stop stop-color="white"/>
<stop offset="1" stop-color="white" stop-opacity="0"/>
</linearGradient>
<linearGradient id="paint1_linear_760_9626" x1="42.5" y1="34.7715" x2="42.5" y2="76.7594" gradientUnits="userSpaceOnUse">
<stop stop-color="white"/>
<stop offset="1" stop-color="white" stop-opacity="0"/>
</linearGradient>
</defs>
</svg>
