<svg width="322" height="322" viewBox="0 0 322 322" fill="none" xmlns="http://www.w3.org/2000/svg">
<path fill-rule="evenodd" clip-rule="evenodd" d="M54.2101 9.27417C41.9054 -3.02759 21.9679 -3.02759 9.66323 9.27417C-2.64146 21.5754 -2.64146 41.5203 9.66323 53.822L116.374 160.531L9.34292 266.916C-3.00083 279.181 -3.05552 299.125 9.20229 311.464C21.4679 323.802 41.4132 323.863 53.757 311.599L160.921 205.079L267.765 311.922C280.062 324.224 300.007 324.224 312.312 311.922C324.616 299.621 324.616 279.676 312.312 267.375L205.601 160.666L312.632 54.2805C324.976 42.0159 325.03 22.0715 312.765 9.73267C300.507 -2.60571 280.562 -2.66626 268.218 9.5979L161.054 116.117L54.2101 9.27417Z" fill="black"/>
</svg>
