<svg width="217" height="23" viewBox="0 0 217 23" fill="none" xmlns="http://www.w3.org/2000/svg">
<path d="M162.692 11.9012C143.917 10.5107 60.8843 16.4867 43.5407 22.6994C43.5407 22.9952 43.7362 23.0129 43.9743 22.9952C45.9688 22.8473 80.1957 18.3631 104.981 16.8417C113.011 16.3488 121.777 15.9762 130.042 15.2738C138.307 14.5714 162.692 11.9012 162.692 11.9012Z" fill="#F6F5F0"/>
<path d="M216.934 3.05548C216.934 3.05548 217.108 3.11467 216.891 3.41051C216.774 3.45017 216.327 3.64717 215.2 4.00217C213.552 4.71219 147.883 3.11996 109.924 5.83639L0.528319 12.8775C-0.4832 12.9354 0.268163 12.3746 0.268163 12.3746C14.3122 9.3436 28.7118 6.13228 66.9113 3.91351C93.1002 1.84356 141.84 -0.145782 151.809 0.00841812C166.681 0.00841812 198.352 1.44755 216.934 3.05548Z" fill="#F6F5F0"/>
</svg>
