<svg width="55" height="55" viewBox="0 0 55 55" fill="none" xmlns="http://www.w3.org/2000/svg">
<path d="M9.14105 41.5831C9.14105 40.6288 9.26602 38.0955 9.26602 37.0391C9.26602 32.4155 7.61881 30.3253 3.31337 30.223C2.89868 30.2484 2.48319 30.1886 2.09247 30.0474C1.70175 29.9061 1.34408 29.6864 1.04147 29.4018C0.738857 29.1171 0.497712 28.7735 0.332877 28.3921C0.168043 28.0108 0.0830078 27.5997 0.0830078 27.1842C0.0830078 26.7688 0.168043 26.3577 0.332877 25.9763C0.497712 25.595 0.738857 25.2514 1.04147 24.9667C1.34408 24.6821 1.70175 24.4623 2.09247 24.3211C2.48319 24.1799 2.89868 24.1201 3.31337 24.1454C7.61881 23.9637 9.26602 21.9302 9.26602 17.2499C9.26602 16.1139 9.14105 13.6374 9.14105 12.7059C9.14105 6.57152 11.7425 2.64096 21.5575 0.493921C22.2309 0.320314 22.9451 0.409457 23.5552 0.743253C24.1652 1.07705 24.6254 1.63048 24.8423 2.2912C25.0591 2.95191 25.0164 3.67039 24.7229 4.30078C24.4293 4.93117 23.9068 5.42622 23.2615 5.68543C17.1158 7.58255 16.2297 9.54784 16.2297 13.8533C16.2297 15.1142 16.366 17.2045 16.366 18.5336C16.366 23.4752 13.9577 25.8835 9.77721 27.2126C14.0145 28.5986 16.366 30.9501 16.366 35.8803C16.366 37.2208 16.2297 39.2883 16.2297 40.572C16.2297 44.8775 17.1158 46.8427 23.2615 48.7399C23.9068 48.9991 24.4293 49.4941 24.7229 50.1245C25.0164 50.7549 25.0591 51.4734 24.8423 52.1341C24.6254 52.7948 24.1652 53.3482 23.5552 53.682C22.9451 54.0158 22.2309 54.105 21.5575 53.9314C11.7311 51.7162 9.14105 47.7743 9.14105 41.5831Z" fill="#E6E6E6"/>
<path d="M45.8085 12.7786C45.8085 13.7329 45.6835 16.2662 45.6835 17.3226C45.6835 22.003 47.3989 24.0364 51.7043 24.2182C52.119 24.1928 52.5345 24.2526 52.9252 24.3938C53.316 24.5351 53.6736 24.7548 53.9762 25.0394C54.2789 25.3241 54.52 25.6677 54.6848 26.0491C54.8497 26.4304 54.9347 26.8415 54.9347 27.257C54.9347 27.6724 54.8497 28.0835 54.6848 28.4648C54.52 28.8462 54.2789 29.1898 53.9762 29.4745C53.6736 29.7591 53.316 29.9789 52.9252 30.1201C52.5345 30.2613 52.119 30.3211 51.7043 30.2958C47.3989 30.4207 45.6835 32.5678 45.6835 37.1118C45.6835 38.191 45.8085 40.7242 45.8085 41.6558C45.8085 47.8583 43.2184 51.7889 33.4034 53.9359C32.7263 54.1156 32.006 54.0278 31.3919 53.6907C30.7778 53.3536 30.3171 52.793 30.1052 52.1253C29.8934 51.4576 29.9466 50.7339 30.254 50.1044C30.5614 49.4749 31.0993 48.9879 31.7562 48.7444C37.8338 46.8473 38.7199 44.882 38.7199 40.5765C38.7199 39.3042 38.5949 37.2254 38.5949 35.8849C38.5949 30.9546 41.0032 28.5463 45.1837 27.2172C40.9351 25.8199 38.5949 23.4798 38.5949 18.5382C38.5949 17.209 38.7199 15.1302 38.7199 13.8578C38.7199 9.5524 37.8338 7.58712 31.7562 5.69C31.0993 5.44648 30.5614 4.95946 30.254 4.32997C29.9466 3.70048 29.8934 2.97682 30.1052 2.30909C30.3171 1.64136 30.7778 1.08081 31.3919 0.743695C32.006 0.406577 32.7263 0.318756 33.4034 0.498471C43.2184 2.71367 45.8085 6.64425 45.8085 12.7786Z" fill="#E6E6E6"/>
</svg>
