<svg width="89" height="42" viewBox="0 0 89 42" fill="none" xmlns="http://www.w3.org/2000/svg">
<path d="M23.6381 35.4994C24.1624 36.0157 24.5215 36.676 24.6701 37.3966C24.8186 38.1172 24.7497 38.8657 24.4723 39.5471C24.1948 40.2286 23.7213 40.8123 23.1117 41.2242C22.502 41.6362 21.7838 41.8578 21.048 41.861C20.0411 41.8697 19.0693 41.4915 18.333 40.8046L1.77014 24.0031C1.58838 24.0031 1.53158 23.8214 1.47478 23.651C1.41883 23.6029 1.35789 23.5611 1.29302 23.526C1.21151 23.3809 1.15397 23.2237 1.12263 23.0602C1.07614 23.037 1.0356 23.0034 1.0041 22.962C0.972592 22.9207 0.950958 22.8727 0.940861 22.8217C0.884061 22.7081 0.884055 22.5263 0.827255 22.4695C0.770455 22.4127 0.713665 22.231 0.713665 22.1742V21.7652C0.713665 21.6402 0.645508 21.5834 0.645508 21.413C0.645508 21.2426 0.713665 21.1745 0.713665 21.1177V20.6974C0.713665 20.5838 0.827255 20.527 0.827255 20.4702C0.827255 20.4134 0.884061 20.1748 0.940861 19.993C0.997661 19.8113 1.00902 19.993 1.00902 19.8794C1.08933 19.6942 1.1843 19.5157 1.29302 19.3455C1.29294 19.3296 1.29622 19.3138 1.30262 19.2993C1.30903 19.2847 1.31842 19.2716 1.3302 19.2609C1.34198 19.2502 1.35588 19.2421 1.371 19.2371C1.38613 19.2321 1.40213 19.2303 1.41798 19.2319C1.49633 19.0633 1.6178 18.9183 1.77014 18.8116L18.333 2.02153C19.0474 1.33892 19.9975 0.958008 20.9856 0.958008C21.9737 0.958008 22.9237 1.33892 23.6381 2.02153C23.9868 2.3697 24.2633 2.78319 24.452 3.23834C24.6408 3.69349 24.7379 4.18137 24.7379 4.67408C24.7379 5.1668 24.6408 5.65469 24.452 6.10984C24.2633 6.56499 23.9868 6.97847 23.6381 7.32664L9.66533 21.413L23.6381 35.4994Z" fill="#E6E6E6"/>
<path d="M38.6672 37.3853L53.1058 3.02127C53.4505 2.22392 54.0972 1.59568 54.9042 1.27417C55.7111 0.952652 56.6127 0.964066 57.4112 1.30591C58.1842 1.64491 58.7914 2.27625 59.1001 3.06181C59.4088 3.84737 59.3938 4.72321 59.0584 5.49774L44.6199 39.9186C44.3613 40.5 43.9389 40.9935 43.4042 41.3385C42.8695 41.6836 42.2458 41.8652 41.6095 41.8611C41.218 41.8648 40.8304 41.7834 40.4735 41.6226C40.0701 41.4716 39.7016 41.2402 39.3903 40.9426C39.079 40.6449 38.8314 40.2871 38.6625 39.8909C38.4936 39.4947 38.4069 39.0683 38.4077 38.6376C38.4085 38.2069 38.4968 37.7808 38.6672 37.3853Z" fill="#E6E6E6"/>
<path d="M87.5837 23.5268C87.5837 23.5268 87.5836 23.595 87.5268 23.595C87.3992 23.7397 87.2626 23.8763 87.1179 24.0039L70.555 40.8054C69.8387 41.4878 68.8861 41.8664 67.8968 41.8619C66.9105 41.8682 65.9607 41.4891 65.2499 40.8054C64.8985 40.4588 64.6195 40.0458 64.4291 39.5904C64.2387 39.1351 64.1406 38.6464 64.1406 38.1528C64.1406 37.6593 64.2387 37.1706 64.4291 36.7152C64.6195 36.2599 64.8985 35.8469 65.2499 35.5003L79.2113 21.4139L65.2499 7.38427C64.8985 7.03763 64.6195 6.62465 64.4291 6.16929C64.2387 5.71393 64.1406 5.22528 64.1406 4.73171C64.1406 4.23813 64.2387 3.74948 64.4291 3.29412C64.6195 2.83876 64.8985 2.42578 65.2499 2.07915C65.9643 1.39655 66.9144 1.01562 67.9025 1.01562C68.8906 1.01562 69.8406 1.39655 70.555 2.07915L87.1179 18.8692C87.2657 18.9977 87.4024 19.1383 87.5268 19.2895C87.5836 19.2895 87.5837 19.4031 87.5837 19.4031C87.6918 19.5756 87.7904 19.7538 87.879 19.9371C87.879 19.9371 87.9358 19.9371 87.9358 20.0507C87.974 20.2355 88.035 20.4149 88.1176 20.5846C88.1176 20.6414 88.1176 20.6414 88.1176 20.755V21.1753C88.1176 21.1753 88.1744 21.4025 88.1744 21.4707C88.1744 21.5388 88.1176 21.6979 88.1176 21.766V22.1523C88.1176 22.1523 88.1176 22.1523 88.1176 22.2659C88.0452 22.4396 87.9844 22.618 87.9358 22.7998C87.9358 22.7998 87.879 22.7998 87.879 22.9816C87.879 23.1633 87.72 23.2883 87.5837 23.5268Z" fill="#E6E6E6"/>
</svg>
