<?xml version="1.0" encoding="utf-8"?>
<!-- Generator: Adobe Illustrator 28.0.0, SVG Export Plug-In . SVG Version: 6.00 Build 0)  -->
<svg version="1.1" id="Layer_1" xmlns="http://www.w3.org/2000/svg" xmlns:xlink="http://www.w3.org/1999/xlink" x="0px" y="0px"
	 viewBox="0 0 1920 140" style="enable-background:new 0 0 1920 140;" xml:space="preserve">
<style type="text/css">
	.st0{fill:none;stroke:#3E5266;stroke-width:5;stroke-linecap:round;}
</style>
<path class="st0" d="M0,68.9C38.7,84,89.5,91.7,139.3,96.7c70.6,7,129-19.6,184.5-34.7C381.4,46.3,455,36,523.3,44.7
	c89.6,11.5,157.9,63.6,261.9,50.1c48.2-6.2,90.3-17.3,136.8-25.1c49.4-8.3,95.8-12.3,149.1-12.3c60.9,0,108.4,6.1,163.8,16.3
	c48.8,9,102.2,20.1,155,23.5c46.6,3,87.9,0.3,131.1-7.2c35.2-6.1,67.5-12.3,105.4-7.3c39.5,5.2,69,15,112.9,13.4
	c68-2.5,129.2-22.8,180.7-40.5"/>
</svg>
