<svg width="1920" height="140" viewBox="0 0 1920 140" fill="none" xmlns="http://www.w3.org/2000/svg">
<path d="M0 60.3549C38.6893 75.4729 94.7028 105.034 144.5 110C215.077 117.04 247.014 32.3064 302.5 47.2787C365.5 64.2787 409.682 127.515 478 136.278C567.627 147.776 572.5 21.0007 704.5 81.6038C748.691 101.893 829.37 47.2788 876.5 47.2787C945.5 47.2787 972.71 110 1026 110C1086.9 110 1111.17 -6.26729 1166.5 4.00054C1215.25 13.0478 1254.69 106.561 1307.5 110C1354.13 113.037 1381.78 54.7843 1425 47.2787C1460.16 41.1729 1559.61 76.5772 1597.5 81.6038C1637.01 86.8449 1691.08 48.8677 1735 47.2787C1803.04 44.8172 1869.96 127.668 1921.5 110" stroke="#3E5266" stroke-width="5" stroke-linecap="round"/>
</svg>
