<?xml version="1.0" encoding="utf-8"?>
<!-- Generator: Adobe Illustrator 28.0.0, SVG Export Plug-In . SVG Version: 6.00 Build 0)  -->
<svg version="1.1" id="Layer_1" xmlns="http://www.w3.org/2000/svg" xmlns:xlink="http://www.w3.org/1999/xlink" x="0px" y="0px"
	 viewBox="0 0 1919.9 140" style="enable-background:new 0 0 1919.9 140;" xml:space="preserve">
<style type="text/css">
	.st0{fill:none;stroke:#3E5266;stroke-width:5;stroke-linecap:round;}
</style>
<path class="st0" d="M0,63.4c38.7,15.1,91.7-5,141.5,0C212,70.4,247,98,302.5,113c63,17,92.7-44.4,161-35.7
	c89.6,11.5,137,20.7,241,7.3C752.7,78.4,863.8,24,911,24c69,0,122.2,67.8,175.5,67.8c60.9,0,79.2-38.7,134.5-28.4
	c48.8,9,105.2-42.8,158-39.4c46.6,3,77.3,60.8,120.5,53.3c35.2-6.1,85.6,30.6,123.5,35.7c39.5,5.2,62.6-61.1,106.5-62.7
	c68-2.5,140.5,80.4,192,62.7"/>
</svg>
