<svg width="89" height="89" viewBox="0 0 89 89" fill="none" xmlns="http://www.w3.org/2000/svg">
<path d="M31.7857 12.7143C31.7857 9.34225 33.1253 6.10832 35.5096 3.72393C37.894 1.33954 41.128 0 44.5 0C47.872 0 51.106 1.33954 53.4904 3.72393C55.8747 6.10832 57.2143 9.34225 57.2143 12.7143V76.2857C57.2143 79.6578 55.8747 82.8917 53.4904 85.2761C51.106 87.6605 47.872 89 44.5 89C41.128 89 37.894 87.6605 35.5096 85.2761C33.1253 82.8917 31.7857 79.6578 31.7857 76.2857V12.7143ZM0 50.8571C0 47.4851 1.33954 44.2512 3.72393 41.8668C6.10832 39.4824 9.34225 38.1429 12.7143 38.1429C16.0863 38.1429 19.3203 39.4824 21.7046 41.8668C24.089 44.2512 25.4286 47.4851 25.4286 50.8571V76.2857C25.4286 79.6578 24.089 82.8917 21.7046 85.2761C19.3203 87.6605 16.0863 89 12.7143 89C9.34225 89 6.10832 87.6605 3.72393 85.2761C1.33954 82.8917 0 79.6578 0 76.2857V50.8571ZM63.5714 38.1429C63.5714 34.7708 64.911 31.5369 67.2954 29.1525C69.6798 26.7681 72.9137 25.4286 76.2857 25.4286C79.6578 25.4286 82.8917 26.7681 85.2761 29.1525C87.6605 31.5369 89 34.7708 89 38.1429V76.2857C89 79.6578 87.6605 82.8917 85.2761 85.2761C82.8917 87.6605 79.6578 89 76.2857 89C72.9137 89 69.6798 87.6605 67.2954 85.2761C64.911 82.8917 63.5714 79.6578 63.5714 76.2857V38.1429Z" fill="black"/>
</svg>
