<svg width="77" height="76" viewBox="0 0 77 76" fill="none" xmlns="http://www.w3.org/2000/svg">
<path d="M22.4583 31.3935L41.7083 50.3935V74.4167C41.7083 74.8366 41.5393 75.2393 41.2385 75.5363C40.9376 75.8332 40.5296 76 40.1042 76H6.41667C4.71486 76 3.08276 75.3327 1.8794 74.145C0.676039 72.9573 0 71.3464 0 69.6667V6.33333C0 4.65363 0.676039 3.04272 1.8794 1.85499C3.08276 0.66726 4.71486 0 6.41667 0H14.4375C14.863 0 15.271 0.166815 15.5718 0.463748C15.8727 0.760681 16.0417 1.16341 16.0417 1.58333V48.0463C13.901 48.7933 12.0968 50.2631 10.948 52.1961C9.79918 54.1291 9.37967 56.4007 9.76361 58.6094C10.1476 60.8181 11.3102 62.8218 13.0462 64.2663C14.7821 65.7107 16.9795 66.5029 19.25 66.5029C21.5205 66.5029 23.7179 65.7107 25.4538 64.2663C27.1898 62.8218 28.3524 60.8181 28.7364 58.6094C29.1203 56.4007 28.7008 54.1291 27.552 52.1961C26.4032 50.2631 24.599 48.7933 22.4583 48.0463V31.3935ZM19.25 60.1667C19.8845 60.1667 20.5048 59.9809 21.0325 59.633C21.5601 59.285 21.9713 58.7905 22.2141 58.2118C22.4569 57.6332 22.5205 56.9965 22.3967 56.3822C22.2729 55.7679 21.9673 55.2037 21.5186 54.7608C21.0699 54.318 20.4983 54.0164 19.8759 53.8942C19.2536 53.772 18.6085 53.8347 18.0222 54.0744C17.436 54.3141 16.9349 54.7199 16.5824 55.2407C16.2298 55.7615 16.0417 56.3737 16.0417 57C16.0417 57.8399 16.3797 58.6453 16.9814 59.2392C17.583 59.833 18.3991 60.1667 19.25 60.1667ZM60.9583 28.5C60.9583 27.8737 60.7702 27.2614 60.4176 26.7407C60.0651 26.2199 59.564 25.8141 58.9778 25.5744C58.3915 25.3347 57.7464 25.272 57.1241 25.3942C56.5017 25.5164 55.9301 25.818 55.4814 26.2608C55.0327 26.7037 54.7271 27.2679 54.6033 27.8822C54.4795 28.4965 54.5431 29.1332 54.7859 29.7118C55.0287 30.2905 55.4399 30.785 55.9675 31.133C56.4952 31.4809 57.1155 31.6667 57.75 31.6667C58.6009 31.6667 59.417 31.333 60.0186 30.7392C60.6203 30.1453 60.9583 29.3399 60.9583 28.5ZM70.5833 0H49.7292C49.3037 0 48.8957 0.166815 48.5948 0.463748C48.294 0.760681 48.125 1.16341 48.125 1.58333V14.5231L53.6032 19.9302C55.652 18.9641 57.9809 18.7441 60.1782 19.3089C62.3755 19.8738 64.2997 21.1872 65.6107 23.017C66.9218 24.8467 67.5352 27.0751 67.3426 29.3081C67.15 31.5411 66.1637 33.6351 64.5582 35.2198C62.9526 36.8045 60.8311 37.7779 58.5687 37.968C56.3063 38.1581 54.0487 37.5526 52.1948 36.2586C50.341 34.9646 49.0103 33.0654 48.438 30.8966C47.8657 28.7279 48.0887 26.4293 49.0674 24.4071L42.6508 18.0738C42.3522 17.7798 42.1153 17.4306 41.9536 17.0461C41.7919 16.6617 41.7085 16.2496 41.7083 15.8333V1.58333C41.7083 1.16341 41.5393 0.760681 41.2385 0.463748C40.9376 0.166815 40.5296 0 40.1042 0H24.0625C23.637 0 23.229 0.166815 22.9282 0.463748C22.6273 0.760681 22.4583 1.16341 22.4583 1.58333V22.4398L47.1866 46.8429C47.4844 47.1372 47.7206 47.4866 47.8816 47.871C48.0426 48.2554 48.1253 48.6674 48.125 49.0833V74.4167C48.125 74.8366 48.294 75.2393 48.5948 75.5363C48.8957 75.8332 49.3037 76 49.7292 76H70.5833C72.2851 76 73.9172 75.3327 75.1206 74.145C76.324 72.9573 77 71.3464 77 69.6667V6.33333C77 4.65363 76.324 3.04272 75.1206 1.85499C73.9172 0.66726 72.2851 0 70.5833 0Z" fill="black"/>
</svg>
