<svg width="30" height="30" viewBox="0 0 30 30" fill="none" xmlns="http://www.w3.org/2000/svg">
<rect width="30" height="30" rx="5" fill="#F368E0"/>
<path d="M17.2356 7.01712C17.384 7.05419 17.5116 7.14867 17.5904 7.2798C17.6691 7.41092 17.6926 7.56796 17.6556 7.71638L17.3671 8.87027C17.3502 8.94529 17.3185 9.01617 17.2739 9.07876C17.2292 9.14134 17.1725 9.19437 17.107 9.23472C17.0416 9.27508 16.9687 9.30194 16.8927 9.31373C16.8168 9.32553 16.7392 9.32201 16.6646 9.3034C16.59 9.28479 16.5199 9.25145 16.4583 9.20535C16.3968 9.15925 16.3451 9.10131 16.3063 9.03494C16.2674 8.96858 16.2423 8.89512 16.2322 8.81889C16.2222 8.74265 16.2275 8.66518 16.2478 8.59103L16.5363 7.43714C16.5734 7.28874 16.6679 7.16113 16.799 7.08236C16.9301 7.0036 17.0872 6.98014 17.2356 7.01712ZM20.6776 8.32333C20.7858 8.43152 20.8466 8.57824 20.8466 8.73123C20.8466 8.88422 20.7858 9.03094 20.6776 9.13913L19.5237 10.293C19.4702 10.3467 19.4066 10.3892 19.3366 10.4183C19.2665 10.4474 19.1915 10.4623 19.1157 10.4624C19.0399 10.4624 18.9648 10.4476 18.8947 10.4186C18.8247 10.3896 18.761 10.3472 18.7074 10.2936C18.599 10.1854 18.5381 10.0386 18.538 9.88553C18.5379 9.73243 18.5986 9.58556 18.7068 9.47722L19.8607 8.32333C19.9143 8.2696 19.9779 8.22697 20.048 8.19789C20.1181 8.1688 20.1933 8.15383 20.2692 8.15383C20.345 8.15383 20.4202 8.1688 20.4903 8.19789C20.5604 8.22697 20.624 8.2696 20.6776 8.32333ZM11.9427 20.8846C12.2323 21.3667 12.6879 21.7265 13.224 21.8963C13.7602 22.0662 14.3399 22.0344 14.8543 21.807C15.3686 21.5796 15.7822 21.1721 16.0174 20.6613C16.2525 20.1504 16.293 19.5712 16.1313 19.0326L11.9427 20.8834V20.8846ZM10.8811 21.3531L9.72951 21.8631C9.43156 21.9947 9.10078 22.0332 8.78057 21.9735C8.46036 21.9138 8.16568 21.7586 7.93521 21.5285L7.47365 21.0681C7.24373 20.8392 7.0884 20.5461 7.02806 20.2273C6.96772 19.9085 7.0052 19.5789 7.13556 19.2818L11.6023 9.11836C11.7081 8.87836 11.8708 8.66773 12.0763 8.50469C12.2818 8.34165 12.5238 8.2311 12.7816 8.18259C13.0394 8.13407 13.3051 8.14906 13.5558 8.22626C13.8065 8.30345 14.0346 8.44053 14.2205 8.62565L20.373 14.7597C20.5584 14.9446 20.6958 15.1719 20.7735 15.4219C20.8512 15.6719 20.8667 15.9371 20.8187 16.1944C20.7707 16.4518 20.6607 16.6935 20.4982 16.8988C20.3357 17.104 20.1256 17.2665 19.8861 17.3722L17.1917 18.563C17.4765 19.3838 17.4423 20.2817 17.0957 21.0784C16.7492 21.8752 16.1158 22.5125 15.3211 22.8638C14.5265 23.2151 13.6288 23.2548 12.8063 22.9749C11.9838 22.6951 11.2966 22.1161 10.8811 21.3531ZM21.4231 11.6154H20.2692C20.1161 11.6154 19.9694 11.6762 19.8612 11.7844C19.753 11.8926 19.6922 12.0393 19.6922 12.1923C19.6922 12.3453 19.753 12.4921 19.8612 12.6003C19.9694 12.7085 20.1161 12.7693 20.2692 12.7693H21.4231C21.5761 12.7693 21.7228 12.7085 21.831 12.6003C21.9392 12.4921 22 12.3453 22 12.1923C22 12.0393 21.9392 11.8926 21.831 11.7844C21.7228 11.6762 21.5761 11.6154 21.4231 11.6154Z" fill="#F6F5F0"/>
</svg>
