<svg width="79" height="79" viewBox="0 0 79 79" fill="none" xmlns="http://www.w3.org/2000/svg">
<path d="M34.2524 0.097864C15.3647 0.097864 0 15.4625 0 34.3503C0 53.238 15.3647 68.6027 34.2524 68.6027C40.0264 68.6027 45.7025 67.2326 50.4978 64.5902C50.8819 65.0525 51.3078 65.4784 51.7701 65.8625L61.5565 75.6489C62.4601 76.6657 63.5621 77.4871 64.7946 78.0626C66.0272 78.6381 67.3644 78.9556 68.7242 78.9957C70.0839 79.0357 71.4375 78.7974 72.7018 78.2954C73.9661 77.7933 75.1144 77.0382 76.0763 76.0763C77.0382 75.1144 77.7934 73.9661 78.2954 72.7018C78.7974 71.4375 79.0357 70.0839 78.9957 68.7241C78.9557 67.3644 78.6381 66.0272 78.0626 64.7946C77.4871 63.562 76.6657 62.4601 75.6489 61.5565L65.8625 51.7701C65.3858 51.2932 64.861 50.8668 64.2967 50.4978C66.939 45.7025 68.6027 40.1242 68.6027 34.2524C68.6027 15.3646 53.238 0 34.3503 0L34.2524 0.097864ZM34.2524 9.88426C47.8555 9.88426 58.7184 20.7472 58.7184 34.3503C58.7184 40.8093 56.3697 46.779 52.2594 51.1829L51.9658 51.4765C51.5035 51.8606 51.0777 52.2865 50.6936 52.7487C46.3875 56.6633 40.5157 58.9141 34.1545 58.9141C20.5514 58.9141 9.68854 48.0512 9.68854 34.4481C9.68854 20.845 20.5514 9.98213 34.1545 9.98213L34.2524 9.88426Z" fill="black"/>
</svg>
