<svg width="30" height="30" viewBox="0 0 30 30" fill="none" xmlns="http://www.w3.org/2000/svg">
<rect width="30" height="30" rx="5" fill="#FF9F43"/>
<path d="M22 19.9636C22 20.2698 21.8931 20.5298 21.6794 20.7435L20.7522 21.6794C20.5269 21.8931 20.264 22 19.9636 22C19.6574 22 19.3975 21.8931 19.1837 21.6794L16.0381 18.5251C15.8186 18.3172 15.7088 18.0572 15.7088 17.7452C15.7088 17.4391 15.833 17.1618 16.0815 16.9133L13.8631 14.695L12.7712 15.7868C12.6904 15.8677 12.5921 15.9081 12.4766 15.9081C12.3611 15.9081 12.2629 15.8677 12.182 15.7868C12.1935 15.7984 12.2296 15.833 12.2903 15.8908C12.351 15.9486 12.3871 15.9861 12.3986 16.0035C12.4102 16.0208 12.4391 16.054 12.4853 16.1031C12.5315 16.1522 12.5604 16.1912 12.5719 16.2201C12.5835 16.249 12.6008 16.288 12.6239 16.3371C12.647 16.3862 12.6629 16.4339 12.6716 16.4801C12.6802 16.5263 12.6846 16.5783 12.6846 16.636C12.6846 16.8556 12.6037 17.052 12.4419 17.2253C12.4246 17.2426 12.3769 17.2946 12.299 17.3813C12.221 17.4679 12.1661 17.5272 12.1343 17.5589C12.1025 17.5907 12.0491 17.6384 11.974 17.7019C11.8989 17.7655 11.8354 17.8102 11.7834 17.8362C11.7314 17.8622 11.6678 17.8882 11.5927 17.9142C11.5176 17.9402 11.4425 17.9532 11.3674 17.9532C11.1363 17.9532 10.9399 17.8723 10.7782 17.7106L7.24263 14.175C7.08088 14.0133 7 13.8169 7 13.5858C7 13.5107 7.013 13.4356 7.03899 13.3605C7.06499 13.2854 7.09099 13.2218 7.11698 13.1698C7.14298 13.1179 7.18775 13.0543 7.2513 12.9792C7.31485 12.9041 7.36251 12.8507 7.39428 12.8189C7.42605 12.7871 7.48527 12.7322 7.57192 12.6542C7.65858 12.5763 7.71057 12.5286 7.7279 12.5113C7.90121 12.3495 8.09763 12.2686 8.31716 12.2686C8.37493 12.2686 8.42692 12.273 8.47314 12.2816C8.51935 12.2903 8.56701 12.3062 8.61612 12.3293C8.66522 12.3524 8.70422 12.3697 8.7331 12.3813C8.76199 12.3928 8.80098 12.4217 8.85009 12.4679C8.89919 12.5142 8.93241 12.543 8.94974 12.5546C8.96707 12.5661 9.00462 12.6023 9.06239 12.6629C9.12016 12.7236 9.15482 12.7597 9.16638 12.7712C9.0855 12.6904 9.04506 12.5921 9.04506 12.4766C9.04506 12.3611 9.0855 12.2629 9.16638 12.182L12.182 9.16638C12.2629 9.0855 12.3611 9.04506 12.4766 9.04506C12.5921 9.04506 12.6904 9.0855 12.7712 9.16638C12.7597 9.15482 12.7236 9.12016 12.6629 9.06239C12.6023 9.00462 12.5661 8.96707 12.5546 8.94974C12.543 8.93241 12.5142 8.89919 12.4679 8.85009C12.4217 8.80098 12.3928 8.76199 12.3813 8.7331C12.3697 8.70422 12.3524 8.66522 12.3293 8.61612C12.3062 8.56701 12.2903 8.51935 12.2816 8.47314C12.273 8.42692 12.2686 8.37493 12.2686 8.31716C12.2686 8.09763 12.3495 7.90121 12.5113 7.7279C12.5286 7.71057 12.5763 7.65858 12.6542 7.57192C12.7322 7.48527 12.7871 7.42605 12.8189 7.39428C12.8507 7.36251 12.9041 7.31485 12.9792 7.2513C13.0543 7.18775 13.1179 7.14298 13.1698 7.11698C13.2218 7.09099 13.2854 7.06499 13.3605 7.03899C13.4356 7.013 13.5107 7 13.5858 7C13.8169 7 14.0133 7.08088 14.175 7.24263L17.7106 10.7782C17.8723 10.9399 17.9532 11.1363 17.9532 11.3674C17.9532 11.4425 17.9402 11.5176 17.9142 11.5927C17.8882 11.6678 17.8622 11.7314 17.8362 11.7834C17.8102 11.8354 17.7655 11.8989 17.7019 11.974C17.6384 12.0491 17.5907 12.1025 17.5589 12.1343C17.5272 12.1661 17.4679 12.221 17.3813 12.299C17.2946 12.3769 17.2426 12.4246 17.2253 12.4419C17.052 12.6037 16.8556 12.6846 16.636 12.6846C16.5783 12.6846 16.5263 12.6802 16.4801 12.6716C16.4339 12.6629 16.3862 12.647 16.3371 12.6239C16.288 12.6008 16.249 12.5835 16.2201 12.5719C16.1912 12.5604 16.1522 12.5315 16.1031 12.4853C16.054 12.4391 16.0208 12.4102 16.0035 12.3986C15.9861 12.3871 15.9486 12.351 15.8908 12.2903C15.833 12.2296 15.7984 12.1935 15.7868 12.182C15.8677 12.2629 15.9081 12.3611 15.9081 12.4766C15.9081 12.5921 15.8677 12.6904 15.7868 12.7712L14.695 13.8631L16.9133 16.0815C17.1618 15.833 17.4391 15.7088 17.7452 15.7088C18.0456 15.7088 18.3085 15.8157 18.5338 16.0295L21.6794 19.175C21.8931 19.4003 22 19.6632 22 19.9636Z" fill="#F6F5F0"/>
</svg>
