<svg width="74" height="73" viewBox="0 0 74 73" fill="none" xmlns="http://www.w3.org/2000/svg">
<path d="M8.3154 73C4.83215 73 2.35562 71.463 0.885829 68.3888C-0.583966 65.3147 -0.224713 62.4583 1.96359 59.8194L24.7072 32.4445V8.11112H20.6092C19.4481 8.11112 18.4742 7.72179 17.6874 6.94312C16.9006 6.16446 16.5085 5.20194 16.5113 4.05557C16.5113 2.9065 16.9047 1.94262 17.6915 1.16396C18.4783 0.385291 19.4509 -0.00268967 20.6092 1.40331e-05H53.3928C54.5538 1.40331e-05 55.5278 0.389348 56.3146 1.16801C57.1014 1.94668 57.4934 2.9092 57.4907 4.05557C57.4907 5.20464 57.0973 6.16851 56.3105 6.94718C55.5237 7.72585 54.5511 8.11383 53.3928 8.11112H49.2948V32.4445L72.0384 59.8194C74.2239 62.4556 74.5832 65.312 73.1161 68.3888C71.6491 71.4657 69.1726 73.0027 65.6866 73H8.3154Z" fill="black"/>
</svg>
