<svg width="30" height="30" viewBox="0 0 30 30" fill="none" xmlns="http://www.w3.org/2000/svg">
<rect width="30" height="30" rx="5" fill="#FDCB6E"/>
<path d="M20.425 7C20.8563 7.00003 21.2731 7.15462 21.5988 7.43534C21.9245 7.71606 22.1372 8.10405 22.1978 8.528L22.213 8.66667L22.9965 21.1111C23.0261 21.5781 22.869 22.0378 22.5595 22.3905C22.2499 22.7433 21.8127 22.9607 21.3427 22.9956L21.2084 23H8.79072C8.31949 23 7.86724 22.8157 7.53203 22.4869C7.19681 22.1581 7.00565 21.7113 7 21.2436L7.00269 21.1111L7.78612 8.66667C7.81307 8.23917 7.99457 7.83571 8.29726 7.53048C8.59994 7.22524 9.00345 7.03876 9.43358 7.00533L9.57326 7H20.425ZM17.6852 10.5556C17.4659 10.5556 17.2542 10.6355 17.0904 10.7802C16.9265 10.9249 16.8218 11.1242 16.7961 11.3404L16.7898 11.4444C16.7898 11.9159 16.6012 12.3681 16.2654 12.7015C15.9295 13.0349 15.4741 13.2222 14.9991 13.2222C14.5242 13.2222 14.0687 13.0349 13.7329 12.7015C13.3971 12.3681 13.2084 11.9159 13.2084 11.4444C13.2084 11.2087 13.1141 10.9826 12.9462 10.8159C12.7783 10.6492 12.5505 10.5556 12.3131 10.5556C12.0756 10.5556 11.8479 10.6492 11.6799 10.8159C11.512 10.9826 11.4177 11.2087 11.4177 11.4444C11.4177 12.3874 11.795 13.2918 12.4667 13.9586C13.1383 14.6254 14.0493 15 14.9991 15C15.949 15 16.8599 14.6254 17.5316 13.9586C18.2032 13.2918 18.5806 12.3874 18.5806 11.4444C18.5806 11.2087 18.4862 10.9826 18.3183 10.8159C18.1504 10.6492 17.9227 10.5556 17.6852 10.5556Z" fill="#F6F5F0"/>
</svg>
