<svg width="94" height="79" viewBox="0 0 94 79" fill="none" xmlns="http://www.w3.org/2000/svg">
<path d="M47.0016 31.6C51.1561 31.6 55.1405 29.9354 58.0782 26.9723C61.0158 24.0092 62.6662 19.9904 62.6662 15.8C62.6662 11.6096 61.0158 7.59079 58.0782 4.62771C55.1405 1.66464 51.1561 0 47.0016 0C42.8471 0 38.8628 1.66464 35.9251 4.62771C32.9874 7.59079 31.3371 11.6096 31.3371 15.8C31.3371 19.9904 32.9874 24.0092 35.9251 26.9723C38.8628 29.9354 42.8471 31.6 47.0016 31.6ZM26.1155 26.3333C26.1155 29.1269 25.0153 31.8061 23.0568 33.7815C21.0984 35.7569 18.4422 36.8667 15.6725 36.8667C12.9028 36.8667 10.2466 35.7569 8.28814 33.7815C6.32969 31.8061 5.22944 29.1269 5.22944 26.3333C5.22944 23.5397 6.32969 20.8605 8.28814 18.8851C10.2466 16.9098 12.9028 15.8 15.6725 15.8C18.4422 15.8 21.0984 16.9098 23.0568 18.8851C25.0153 20.8605 26.1155 23.5397 26.1155 26.3333ZM2.56646 64.9169C1.67508 64.4059 1.00755 63.5747 0.697156 62.589C-0.222848 59.5835 -0.232495 56.3694 0.669448 53.3583C1.57139 50.3472 3.34387 47.6762 5.75991 45.6873C8.17595 43.6983 11.1256 42.4821 14.2311 42.1942C17.3365 41.9064 20.4565 42.56 23.1915 44.0714C17.5712 49.6423 14.0535 57.0161 13.2445 64.9222C13.1244 66.0914 13.1714 67.25 13.375 68.3666C9.56414 68.0342 5.87323 66.8562 2.56646 64.9169ZM80.6283 68.3613C84.4387 68.0305 88.1296 66.8544 91.4368 64.9169C92.3262 64.4049 92.9918 63.5738 93.3009 62.589C94.2224 59.5832 94.2331 56.3683 93.3318 53.3562C92.4305 50.3441 90.6581 47.672 88.2418 45.6823C85.8254 43.6926 82.8752 42.4758 79.7689 42.1879C76.6627 41.9 73.542 42.554 70.8066 44.0662C76.4318 49.6369 79.9534 57.0129 80.764 64.9222C80.8804 66.071 80.8347 67.2307 80.6283 68.3666V68.3613ZM88.7738 26.3333C88.7738 29.1269 87.6736 31.8061 85.7151 33.7815C83.7567 35.7569 81.1005 36.8667 78.3308 36.8667C75.5611 36.8667 72.9049 35.7569 70.9464 33.7815C68.988 31.8061 67.8877 29.1269 67.8877 26.3333C67.8877 23.5397 68.988 20.8605 70.9464 18.8851C72.9049 16.9098 75.5611 15.8 78.3308 15.8C81.1005 15.8 83.7567 16.9098 85.7151 18.8851C87.6736 20.8605 88.7738 23.5397 88.7738 26.3333ZM22.4814 69.4673C21.9664 69.0021 21.5672 68.4213 21.3159 67.7717C21.0646 67.1221 20.9684 66.422 21.035 65.728C21.6992 59.2472 24.7216 53.2449 29.5182 48.8812C34.3147 44.5175 40.5448 42.1022 47.0042 42.1022C53.4637 42.1022 59.6938 44.5175 64.4903 48.8812C69.2869 53.2449 72.3093 59.2472 72.9735 65.728C73.0405 66.422 72.9445 67.1223 72.6932 67.7719C72.4419 68.4216 72.0424 69.0024 71.5271 69.4673C64.8133 75.6132 56.0682 79.0123 47.0016 79C37.9368 79.0115 29.1936 75.6124 22.4814 69.4673Z" fill="black"/>
</svg>
