<svg width="30" height="30" viewBox="0 0 30 30" fill="none" xmlns="http://www.w3.org/2000/svg">
<rect width="30" height="30" rx="5" fill="#6C5CE7"/>
<path d="M14.9991 7C15.573 6.99997 16.1251 7.21921 16.5426 7.61287C16.9601 8.00654 17.2114 8.54486 17.2451 9.11769L17.2488 9.24967V9.99957H19.4985C19.8769 9.99945 20.2413 10.1424 20.5187 10.3996C20.7962 10.6569 20.9661 11.0096 20.9945 11.3869L20.9983 11.4993V13.749H21.7482C22.3338 13.7485 22.8965 13.9763 23.3168 14.384C23.7371 14.7918 23.9818 15.3473 23.999 15.9327C24.0162 16.518 23.8045 17.087 23.4088 17.5187C23.0132 17.9504 22.4648 18.2108 21.8801 18.2446L21.7482 18.2484H20.9983V20.498C20.9984 20.8764 20.8555 21.2409 20.5982 21.5183C20.3409 21.7958 19.9883 21.9657 19.611 21.9941L19.4985 21.9978H17.2488C16.8704 21.998 16.506 21.855 16.2285 21.5978C15.9511 21.3405 15.7812 20.9878 15.7528 20.6105L15.749 20.498V19.7482C15.7488 19.557 15.6756 19.3732 15.5444 19.2342C15.4132 19.0952 15.2339 19.0116 15.0431 19.0004C14.8523 18.9892 14.6644 19.0513 14.5178 19.1739C14.3713 19.2966 14.2771 19.4706 14.2545 19.6604L14.2492 19.7482V20.498C14.2494 20.8764 14.1065 21.2409 13.8492 21.5183C13.5919 21.7958 13.2393 21.9657 12.8619 21.9941L12.7495 21.9978H10.4998C10.1214 21.998 9.75697 21.855 9.47952 21.5978C9.20207 21.3405 9.03213 20.9878 9.00375 20.6105L9 20.498V18.2484C8.99988 17.87 9.14278 17.5056 9.40006 17.2281C9.65735 16.9507 10.01 16.7807 10.3873 16.7523L10.4998 16.7486H11.2497C11.4408 16.7484 11.6246 16.6752 11.7636 16.544C11.9026 16.4128 11.9862 16.2335 11.9974 16.0426C12.0086 15.8518 11.9466 15.664 11.8239 15.5174C11.7012 15.3708 11.5272 15.2766 11.3374 15.2541L11.2497 15.2488H10.4998C10.1214 15.2489 9.75697 15.106 9.47952 14.8487C9.20207 14.5915 9.03213 14.2388 9.00375 13.8615L9 13.749V11.4993C8.99988 11.121 9.14278 10.7565 9.40006 10.4791C9.65735 10.2016 10.01 10.0317 10.3873 10.0033L10.4998 9.99957H12.7495V9.24967C12.7495 8.65302 12.9865 8.08081 13.4084 7.65891C13.8303 7.23702 14.4025 7 14.9991 7Z" fill="#F6F5F0"/>
</svg>
