<svg width="64" height="89" viewBox="0 0 64 89" fill="none" xmlns="http://www.w3.org/2000/svg">
<path d="M0 32.3332C0 14.4044 14.3957 0 32 0C49.6043 0 64 14.4044 64 32.3332C64 42.8083 59.8485 52.2599 52.0747 58.2184C51.5991 58.5581 51.2544 59.0626 51.1019 59.6424C50.8501 60.7548 50.5728 62.0364 50.2912 63.4159C50.2509 63.6169 50.1451 63.7971 49.9919 63.926C49.8387 64.055 49.6475 64.1247 49.4507 64.1234H36.0533C35.827 64.1234 35.61 64.0297 35.4499 63.8628C35.2899 63.6959 35.2 63.4695 35.2 63.2334V60.2787L39.68 52.9452C40.1066 52.2462 40.2687 51.4066 40.1346 50.5899C40.0005 49.7732 39.58 49.0376 38.9547 48.5264L31.2747 42.2387L34.7008 36.6318C35.1563 35.8847 35.3085 34.9796 35.1241 34.1154C34.9397 33.2513 34.4336 32.4989 33.7173 32.0239C33.001 31.5489 32.1331 31.3901 31.3046 31.5824C30.476 31.7748 29.7547 32.3025 29.2992 33.0496L24.3243 41.2019C23.8976 41.9009 23.7356 42.7404 23.8697 43.5572C24.0037 44.3739 24.4243 45.1094 25.0496 45.6206L32.7211 51.9084L29.2992 57.5153C28.9734 58.0501 28.8002 58.6705 28.8 59.3042V63.229C28.8 63.465 28.7101 63.6914 28.5501 63.8583C28.39 64.0252 28.173 64.119 27.9467 64.119H14.5493C14.3538 64.1195 14.164 64.0499 14.0118 63.9219C13.8596 63.7939 13.7541 63.6153 13.7131 63.4159C13.4272 62.0364 13.1499 60.7504 12.9024 59.6424C12.748 59.0611 12.4001 58.5563 11.9211 58.2184C4.16 52.2555 0 42.8083 0 32.3332ZM16.1323 70.7983C16.0074 70.7984 15.8841 70.8269 15.7709 70.8818C15.6577 70.9368 15.5573 71.0169 15.4769 71.1165C15.3964 71.216 15.3378 71.3327 15.3051 71.4584C15.2724 71.5841 15.2663 71.7157 15.2875 71.8441C15.7355 74.5318 16.064 76.9481 16.1579 78.5857C16.4267 83.2181 19.6992 87.0361 24.0725 88.0195L24.9088 88.2109C29.5824 89.263 34.4176 89.263 39.0912 88.2109L39.9275 88.0195C44.3008 87.0361 47.5733 83.2181 47.8421 78.5857C47.936 76.9481 48.2688 74.5363 48.7125 71.8441C48.7337 71.7157 48.7276 71.5841 48.6949 71.4584C48.6622 71.3327 48.6036 71.216 48.5231 71.1165C48.4427 71.0169 48.3423 70.9368 48.2291 70.8818C48.1159 70.8269 47.9926 70.7984 47.8677 70.7983H16.1323Z" fill="black"/>
</svg>
