<svg width="30" height="30" viewBox="0 0 30 30" fill="none" xmlns="http://www.w3.org/2000/svg">
<rect width="30" height="30" rx="5" fill="#0ABDE3"/>
<path d="M7.95161 7.40738C7.79644 7.71352 7.72015 8.09279 7.56755 8.84963L7.05491 11.3923C6.98226 11.739 6.98169 12.0967 7.05326 12.4436C7.12482 12.7905 7.267 13.1193 7.4711 13.4098C7.6752 13.7003 7.93692 13.9464 8.24024 14.1331C8.54355 14.3198 8.88209 14.4431 9.23512 14.4954C9.58814 14.5478 9.94824 14.5282 10.2933 14.4377C10.6385 14.3473 10.9613 14.1879 11.2422 13.9694C11.5231 13.7508 11.756 13.4777 11.9268 13.1668C12.0975 12.8559 12.2025 12.5136 12.2353 12.161L12.2953 11.5743C12.2622 11.9478 12.308 12.324 12.4299 12.679C12.5518 13.0339 12.747 13.3597 13.0032 13.6354C13.2593 13.9112 13.5706 14.1308 13.9173 14.2803C14.2639 14.4298 14.6382 14.5059 15.0162 14.5036C15.3942 14.5014 15.7675 14.4209 16.1123 14.2672C16.4571 14.1136 16.7658 13.8902 17.0185 13.6114C17.2713 13.3326 17.4625 13.0045 17.5801 12.6482C17.6977 12.2918 17.7389 11.915 17.7012 11.5419L17.7647 12.161C17.7975 12.5136 17.9025 12.8559 18.0732 13.1668C18.244 13.4777 18.4769 13.7508 18.7578 13.9694C19.0387 14.1879 19.3615 14.3473 19.7067 14.4377C20.0518 14.5282 20.4119 14.5478 20.7649 14.4954C21.1179 14.4431 21.4564 14.3198 21.7598 14.1331C22.0631 13.9464 22.3248 13.7003 22.5289 13.4098C22.733 13.1193 22.8752 12.7905 22.9467 12.4436C23.0183 12.0967 23.0177 11.739 22.9451 11.3923L22.4324 8.84963C22.2799 8.09279 22.2036 7.71437 22.0484 7.40738C21.8867 7.08767 21.6591 6.80526 21.3802 6.57847C21.1014 6.35169 20.7776 6.1856 20.4299 6.09099C20.0956 6 19.7064 6 18.928 6H11.072C10.2936 6 9.90444 6 9.57011 6.09099C9.22238 6.1856 8.89859 6.35169 8.61976 6.57847C8.34092 6.80526 8.11328 7.08767 7.95161 7.40738ZM20.3733 15.7794C21.0434 15.7812 21.7026 15.611 22.2867 15.2853V16.2046C22.2867 19.4114 22.2867 21.0152 21.282 22.011C20.4736 22.8138 19.2692 22.9694 17.1432 23V20.0313C17.1432 19.2362 17.1432 18.8391 16.9708 18.5431C16.858 18.3492 16.6957 18.1882 16.5002 18.0763C16.2019 17.9054 15.8015 17.9054 15 17.9054C14.1985 17.9054 13.7981 17.9054 13.4998 18.0763C13.3043 18.1882 13.142 18.3492 13.0292 18.5431C12.8568 18.8391 12.8568 19.2362 12.8568 20.0313V23C10.7308 22.9694 9.52639 22.8129 8.718 22.011C7.71329 21.0152 7.71329 19.4114 7.71329 16.2046V15.2853C8.29743 15.611 8.9566 15.7812 9.62669 15.7794C10.6174 15.7801 11.5712 15.4067 12.2945 14.7351C13.0316 15.4087 13.9978 15.7816 15 15.7794C16.0019 15.7813 16.9677 15.4084 17.7047 14.7351C18.4286 15.4073 19.3834 15.7808 20.375 15.7794H20.3733Z" fill="#F6F5F0"/>
</svg>
