<svg width="89" height="75" viewBox="0 0 89 75" fill="none" xmlns="http://www.w3.org/2000/svg">
<path fill-rule="evenodd" clip-rule="evenodd" d="M81.7404 21.4156C81.505 21.3984 81.2439 21.3984 80.97 21.3984H70.1636C61.3131 21.3984 53.7422 28.3659 53.7422 37.4475C53.7422 46.5292 61.3174 53.4966 70.1636 53.4966H80.97C81.2439 53.4966 81.505 53.4966 81.7489 53.4795C83.5679 53.3698 85.285 52.6026 86.5803 51.3207C87.8755 50.0389 88.6606 48.3298 88.7891 46.5121C88.8062 46.2553 88.8062 45.9771 88.8062 45.7203V29.1748C88.8062 28.918 88.8062 28.6398 88.7891 28.383C88.6606 26.5652 87.8755 24.8562 86.5803 23.5743C85.285 22.2925 83.5679 21.5252 81.7489 21.4156H81.7404ZM69.2092 41.7273C71.4861 41.7273 73.3306 39.81 73.3306 37.4475C73.3306 35.0851 71.4861 33.1678 69.2092 33.1678C66.9281 33.1678 65.0835 35.0851 65.0835 37.4475C65.0835 39.81 66.9281 41.7273 69.2092 41.7273Z" fill="black"/>
<path fill-rule="evenodd" clip-rule="evenodd" d="M80.9645 59.9166C81.1124 59.9107 81.2597 59.9397 81.3943 60.0014C81.529 60.063 81.6472 60.1556 81.7393 60.2715C81.8314 60.3874 81.895 60.5234 81.9247 60.6685C81.9544 60.8135 81.9495 60.9636 81.9103 61.1064C81.0543 64.1536 79.6891 66.7557 77.5021 68.9383C74.2966 72.1482 70.2351 73.5648 65.2192 74.241C60.3403 74.8958 54.1133 74.8958 46.2471 74.8958H37.2082C29.342 74.8958 23.1107 74.8958 18.2361 74.241C13.2202 73.5648 9.15868 72.1439 5.95314 68.9426C2.75188 65.7371 1.33101 61.6756 0.654804 56.6597C5.10187e-07 51.7808 0 45.5537 0 37.6875V37.2082C0 29.342 5.10187e-07 23.1107 0.654804 18.2318C1.33101 13.2159 2.75188 9.1544 5.95314 5.94886C9.15868 2.7476 13.2202 1.32672 18.2361 0.650523C23.115 -1.9132e-07 29.342 0 37.2082 0H46.2471C54.1133 0 60.3446 5.10187e-07 65.2192 0.654803C70.2351 1.33101 74.2966 2.75188 77.5021 5.95314C79.6891 8.14438 81.0543 10.7422 81.9103 13.7894C81.9495 13.9322 81.9544 14.0822 81.9247 14.2273C81.895 14.3724 81.8314 14.5084 81.7393 14.6243C81.6472 14.7402 81.529 14.8327 81.3943 14.8944C81.2597 14.9561 81.1124 14.9851 80.9645 14.9792H70.1624C58.0207 14.9792 47.3213 24.5658 47.3213 37.4479C47.3213 50.33 58.0207 59.9166 70.1624 59.9166H80.9645ZM16.0491 17.119C15.1978 17.119 14.3814 17.4572 13.7794 18.0592C13.1775 18.6611 12.8393 19.4776 12.8393 20.3289C12.8393 21.1801 13.1775 21.9966 13.7794 22.5985C14.3814 23.2005 15.1978 23.5387 16.0491 23.5387H33.1681C34.0194 23.5387 34.8359 23.2005 35.4378 22.5985C36.0398 21.9966 36.3779 21.1801 36.3779 20.3289C36.3779 19.4776 36.0398 18.6611 35.4378 18.0592C34.8359 17.4572 34.0194 17.119 33.1681 17.119H16.0491Z" fill="black"/>
</svg>
