<svg width="30" height="30" viewBox="0 0 30 30" fill="none" xmlns="http://www.w3.org/2000/svg">
<rect width="30" height="30" rx="5" fill="#2ECC71"/>
<path d="M22 20.6923C22 20.8453 21.9392 20.9921 21.831 21.1003C21.7228 21.2084 21.5761 21.2692 21.4231 21.2692H7.57692C7.42391 21.2692 7.27717 21.2084 7.16898 21.1003C7.06078 20.9921 7 20.8453 7 20.6923C7 20.5393 7.06078 20.3926 7.16898 20.2844C7.27717 20.1762 7.42391 20.1154 7.57692 20.1154H8.15385V15.5C8.15385 15.347 8.21463 15.2002 8.32282 15.0921C8.43102 14.9839 8.57776 14.9231 8.73077 14.9231H10.4615C10.6145 14.9231 10.7613 14.9839 10.8695 15.0921C10.9777 15.2002 11.0385 15.347 11.0385 15.5V20.1154H12.1923V12.0385C12.1923 11.8855 12.2531 11.7387 12.3613 11.6305C12.4695 11.5223 12.6162 11.4615 12.7692 11.4615H15.0769C15.2299 11.4615 15.3767 11.5223 15.4849 11.6305C15.5931 11.7387 15.6538 11.8855 15.6538 12.0385V20.1154H16.8077V8.57692C16.8077 8.42391 16.8685 8.27717 16.9767 8.16898C17.0849 8.06078 17.2316 8 17.3846 8H20.2692C20.4222 8 20.569 8.06078 20.6772 8.16898C20.7854 8.27717 20.8462 8.42391 20.8462 8.57692V20.1154H21.4231C21.5761 20.1154 21.7228 20.1762 21.831 20.2844C21.9392 20.3926 22 20.5393 22 20.6923Z" fill="#F6F5F0"/>
</svg>
