<svg width="30" height="30" viewBox="0 0 30 30" fill="none" xmlns="http://www.w3.org/2000/svg">
<rect width="30" height="30" rx="5" fill="#E84393"/>
<path d="M15 23C14.753 22.9997 14.5118 22.9239 14.3077 22.7824C11.2852 20.6984 9.97642 19.2695 9.25454 18.3762C7.71616 16.4719 6.97966 14.5168 7.00043 12.3996C7.02466 9.97344 8.94109 8 11.2725 8C12.9678 8 14.142 8.96992 14.8258 9.77773C14.8474 9.80307 14.8742 9.82338 14.9043 9.8373C14.9343 9.85122 14.967 9.85842 15 9.85842C15.033 9.85842 15.0657 9.85122 15.0957 9.8373C15.1258 9.82338 15.1526 9.80307 15.1742 9.77773C15.858 8.96914 17.0322 8 18.7275 8C21.0589 8 22.9753 9.97344 22.9996 12.4C23.0203 14.5176 22.2831 16.4727 20.7455 18.3766C20.0236 19.2699 18.7148 20.6988 15.6923 22.7828C15.4882 22.9241 15.247 22.9998 15 23Z" fill="#F6F5F0"/>
</svg>
