<svg width="76" height="63" viewBox="0 0 76 63" fill="none" xmlns="http://www.w3.org/2000/svg">
<path d="M71.7778 54.5998C72.8539 54.601 73.889 55.0109 74.6716 55.7458C75.4541 56.4807 75.925 57.4851 75.9881 58.5538C76.0511 59.6224 75.7016 60.6747 75.0109 61.4957C74.3202 62.3166 73.3404 62.8442 72.2718 62.9706L71.7778 63H4.22222C3.14606 62.9988 2.11098 62.5889 1.32844 61.854C0.545915 61.1191 0.0750078 60.1147 0.0119399 59.0461C-0.0511279 57.9774 0.298404 56.9251 0.989118 56.1041C1.67983 55.2832 2.6596 54.7556 3.72822 54.6292L4.22222 54.5998H71.7778ZM51.5956 1.57358C52.2884 0.713503 53.2934 0.158818 54.3937 0.0291722C55.494 -0.100474 56.6014 0.205309 57.4771 0.880565L57.874 1.22917L74.7629 18.0296C75.4191 18.6829 75.8406 19.5332 75.962 20.4488L76 20.999V41.9995C75.9999 43.0283 75.6202 44.0212 74.933 44.7899C74.2458 45.5587 73.2988 46.0499 72.2718 46.1702L71.7778 46.1996H4.12933L3.66489 46.1618L3.20044 46.0778L2.74867 45.935L2.30533 45.7418L1.88311 45.494L1.48622 45.2L1.23289 44.969L0.928889 44.6246L0.658666 44.2508L0.430667 43.8476L0.363111 43.7006L0.194222 43.2679L0.0802224 42.8227L0.0168887 42.3691L0 41.9071L0.0380003 41.4451L0.118223 41.0041C0.160445 40.8361 0.211111 40.6807 0.266 40.5337L0.460222 40.0927L0.709333 39.6727L17.5982 14.4721C18.118 13.6936 18.884 13.1097 19.775 12.8131C20.6659 12.5164 21.6309 12.5237 22.5171 12.834L22.9984 13.044L36.8347 19.9238L51.5913 1.57358H51.5956Z" fill="black"/>
</svg>
