<svg width="271" height="271" viewBox="0 0 271 271" fill="none" xmlns="http://www.w3.org/2000/svg">
<g opacity="0.7">
<path fill-rule="evenodd" clip-rule="evenodd" d="M0 0H12.3744V6.18765H258.626V0H271V12.3744H264.813V258.625H271V270.999H258.626V264.813H12.3744V270.999H0V258.625H6.18722V12.3744H0V0ZM264.313 258.625H258.626V264.313H12.3744V258.625H6.68722V12.3744H12.3744V6.68765H258.626V12.3744H264.313V258.625Z" fill="url(#paint0_linear_702_1096)"/>
<path d="M129.395 60.8902L96.0401 159.045H162.42L129.395 60.8902ZM29 246V232.496L56.7407 228.214L127.083 24H147.889L218.231 229.531L243 232.496V246H153.173V232.496L185.537 228.543L167.373 174.525H90.7562L72.2623 228.214L104.627 232.496V246H29Z" fill="url(#paint1_linear_702_1096)"/>
</g>
<defs>
<linearGradient id="paint0_linear_702_1096" x1="5.24518" y1="3.49676" x2="318.206" y2="337.439" gradientUnits="userSpaceOnUse">
<stop stop-color="white"/>
<stop offset="0.276869" stop-color="white" stop-opacity="0.33"/>
<stop offset="1" stop-color="white" stop-opacity="0"/>
</linearGradient>
<linearGradient id="paint1_linear_702_1096" x1="68.7428" y1="15.8532" x2="292.726" y2="337.796" gradientUnits="userSpaceOnUse">
<stop stop-color="white"/>
<stop offset="0.320208" stop-color="white" stop-opacity="0.35"/>
<stop offset="1" stop-color="white" stop-opacity="0"/>
</linearGradient>
</defs>
</svg>
