<svg width="150" height="150" viewBox="0 0 150 150" fill="none" xmlns="http://www.w3.org/2000/svg">
<path d="M75 135C90.913 135 106.174 128.679 117.426 117.426C128.679 106.174 135 90.913 135 75C135 59.087 128.679 43.8258 117.426 32.5736C106.174 21.3214 90.913 15 75 15C59.087 15 43.8258 21.3214 32.5736 32.5736C21.3214 43.8258 15 59.087 15 75C15 90.913 21.3214 106.174 32.5736 117.426C43.8258 128.679 59.087 135 75 135ZM75 0C84.8491 0 94.6018 1.93993 103.701 5.70904C112.801 9.47814 121.069 15.0026 128.033 21.967C134.997 28.9314 140.522 37.1993 144.291 46.2987C148.06 55.3982 150 65.1509 150 75C150 94.8912 142.098 113.968 128.033 128.033C113.968 142.098 94.8912 150 75 150C33.525 150 0 116.25 0 75C0 55.1088 7.90176 36.0322 21.967 21.967C36.0322 7.90176 55.1088 0 75 0ZM78.75 37.5V76.875L112.5 96.9L106.875 106.125L67.5 82.5V37.5H78.75Z" fill="#A1AEBC"/>
</svg>
