<?xml version="1.0" encoding="utf-8"?>
<svg version="1.1" xmlns="http://www.w3.org/2000/svg" xmlns:xlink="http://www.w3.org/1999/xlink" x="0px" y="0px"
	 viewBox="0 0 43 43">
<path d="M18.3,36c-0.1,0-0.2,0-0.4,0c-0.8-0.2-1.3-1-1.1-1.8l6.4-26c0.2-0.8,1-1.3,1.8-1.1s1.3,1,1.1,1.8l-6.4,26
	C19.6,35.5,19,36,18.3,36z M29.6,29.5c-0.4,0-0.8-0.1-1.1-0.4c-0.6-0.6-0.6-1.5,0-2.1l5.4-5.4l-5.4-5.4c-0.6-0.6-0.6-1.5,0-2.1
	s1.5-0.6,2.1,0l6.4,6.5c0.6,0.6,0.6,1.5,0,2.1l-6.4,6.5C30.3,29.4,29.9,29.5,29.6,29.5z M13.4,29.5c-0.4,0-0.8-0.1-1.1-0.4l-6.4-6.5
	c-0.6-0.6-0.6-1.5,0-2.1l6.4-6.5c0.6-0.6,1.5-0.6,2.1,0s0.6,1.5,0,2.1L9,21.5l5.4,5.4c0.6,0.6,0.6,1.5,0,2.1
	C14.2,29.4,13.8,29.5,13.4,29.5z"/>
</svg>