<?xml version="1.0" encoding="utf-8"?>
<!-- Generator: Adobe Illustrator 27.9.0, SVG Export Plug-In . SVG Version: 6.00 Build 0)  -->
<svg version="1.1" id="Layer_1" xmlns="http://www.w3.org/2000/svg" xmlns:xlink="http://www.w3.org/1999/xlink" x="0px" y="0px"
	 viewBox="0 0 43 43" style="enable-background:new 0 0 43 43;" xml:space="preserve">
<path d="M2,31.8V21.5h39v10.3c0,0.7-0.3,1.4-0.8,1.9s-1.2,0.8-1.9,0.8H4.7c-0.3,0-0.7-0.1-1-0.2C3.3,34.2,3,34,2.8,33.7l0,0
	c-0.3-0.2-0.5-0.5-0.6-0.9C2.1,32.5,2,32.2,2,31.8L2,31.8L2,31.8L2,31.8z M12.8,28v2.2h6.5V28H12.8z M6.3,28v2.2h4.3V28H6.3z
	 M38.3,8.5c0.7,0,1.4,0.3,1.9,0.8s0.8,1.2,0.8,1.9V15H2v-3.8c0-0.3,0.1-0.7,0.2-1c0.1-0.3,0.3-0.6,0.6-0.9l0,0C3,9,3.3,8.8,3.7,8.7
	c0.3-0.1,0.7-0.2,1-0.2l0,0l0,0H38.3z"/>
</svg>
