<?xml version="1.0" encoding="utf-8"?>
<!-- Generator: Adobe Illustrator 27.9.0, SVG Export Plug-In . SVG Version: 6.00 Build 0)  -->
<svg version="1.1" id="Layer_1" xmlns="http://www.w3.org/2000/svg" xmlns:xlink="http://www.w3.org/1999/xlink" x="0px" y="0px"
	 viewBox="0 0 43 43" style="enable-background:new 0 0 43 43;" xml:space="preserve">
<path d="M35.8,8c-0.4-0.3-0.8-0.4-1.3-0.4s-0.9,0-1.4,0.2l-14.2,5.6c-0.3,0.1-0.7,0.2-1.1,0.2h-9c-0.8,0-1.5,0.3-2,0.8
	S6,15.7,6,16.4v0.2H3v6.9h2.9v0.3c0,0.7,0.3,1.5,0.9,2c0.5,0.5,1.3,0.8,2,0.8l3.5,7.3c0.2,0.5,0.6,0.9,1.1,1.2
	c0.5,0.3,1,0.4,1.5,0.5h1.4c0.8,0,1.5-0.3,2-0.8s0.8-1.3,0.8-2V27l14,5.6c0.3,0.1,0.7,0.2,1.1,0.2c0.6,0,1.1-0.2,1.6-0.5
	c0.4-0.3,0.7-0.6,0.9-1s0.3-0.8,0.4-1.3V10.3c0-0.5-0.1-0.9-0.3-1.3C36.5,8.6,36.2,8.2,35.8,8z M16.2,16.4v7.4H8.8v-7.4H16.2z
	 M16.2,32.6h-1.4l-2.8-6h4.3L16.2,32.6L16.2,32.6z M20,24.1c-0.3-0.1-0.6-0.3-0.9-0.3v-7.6c0.3-0.1,0.6-0.1,0.9-0.3l14.2-5.6v19.4
	L20,24.1z M37.1,17.2v5.7c0.8,0,1.5-0.3,2-0.8s0.8-1.3,0.8-2c0-0.8-0.3-1.5-0.8-2C38.6,17.5,37.9,17.2,37.1,17.2z"/>
</svg>
