<svg width="109" height="150" viewBox="0 0 109 150" fill="none" xmlns="http://www.w3.org/2000/svg">
<path d="M54.2308 71.25C49.094 71.25 44.1677 69.2746 40.5354 65.7583C36.9032 62.2419 34.8626 57.4728 34.8626 52.5C34.8626 47.5272 36.9032 42.7581 40.5354 39.2417C44.1677 35.7254 49.094 33.75 54.2308 33.75C59.3675 33.75 64.2939 35.7254 67.9261 39.2417C71.5583 42.7581 73.5989 47.5272 73.5989 52.5C73.5989 54.9623 73.0979 57.4005 72.1246 59.6753C71.1513 61.9502 69.7246 64.0172 67.9261 65.7583C66.1276 67.4994 63.9925 68.8805 61.6426 69.8227C59.2928 70.765 56.7742 71.25 54.2308 71.25ZM54.2308 0C39.8479 0 26.0541 5.53123 15.8838 15.3769C5.71358 25.2226 0 38.5761 0 52.5C0 91.875 54.2308 150 54.2308 150C54.2308 150 108.462 91.875 108.462 52.5C108.462 38.5761 102.748 25.2226 92.5777 15.3769C82.4075 5.53123 68.6137 0 54.2308 0Z" fill="#A1AEBC"/>
</svg>
