<?xml version="1.0" encoding="utf-8"?>
<!-- Generator: Adobe Illustrator 27.9.0, SVG Export Plug-In . SVG Version: 6.00 Build 0)  -->
<svg version="1.1" id="Layer_1" xmlns="http://www.w3.org/2000/svg" xmlns:xlink="http://www.w3.org/1999/xlink" x="0px" y="0px"
	 viewBox="0 0 43 43" style="enable-background:new 0 0 43 43;" xml:space="preserve">
<path d="M41,35.9H2c-0.8,0-1.5-0.7-1.5-1.5V8.5C0.5,7.7,1.2,7,2,7h39c0.8,0,1.5,0.7,1.5,1.5v25.9C42.5,35.2,41.8,35.9,41,35.9z
	 M3.5,32.9h36V10h-36V32.9z"/>
<path d="M36.5,30.6h-12c-0.8,0-1.5-0.7-1.5-1.5V13.8c0-0.8,0.7-1.5,1.5-1.5h12c0.8,0,1.5,0.7,1.5,1.5v15.3
	C38,30,37.3,30.6,36.5,30.6z M26,27.6h9V15.3h-9V27.6z"/>
<path d="M18.5,21.8h-12c-0.8,0-1.5-0.7-1.5-1.5v-6.5c0-0.8,0.7-1.5,1.5-1.5h12c0.8,0,1.5,0.7,1.5,1.5v6.5
	C20,21.1,19.3,21.8,18.5,21.8z M8,18.8h9v-3.5H8V18.8z"/>
<path d="M11,25.9H7.3c-0.8,0-1.5-0.7-1.5-1.5s0.7-1.5,1.5-1.5h3.8c0.8,0,1.5,0.7,1.5,1.5S11.8,25.9,11,25.9z"/>
<path d="M17.7,29.4H7.3c-0.8,0-1.5-0.7-1.5-1.5s0.7-1.5,1.5-1.5h10.5c0.8,0,1.5,0.7,1.5,1.5S18.6,29.4,17.7,29.4z"/>
</svg>
