<?xml version="1.0" encoding="utf-8"?>
<!-- Generator: Adobe Illustrator 27.9.0, SVG Export Plug-In . SVG Version: 6.00 Build 0)  -->
<svg version="1.1" id="Layer_1" xmlns="http://www.w3.org/2000/svg" xmlns:xlink="http://www.w3.org/1999/xlink" x="0px" y="0px"
	 viewBox="0 0 43 43" style="enable-background:new 0 0 43 43;" xml:space="preserve">
<path d="M37.7,11.3c-0.7-0.7-1.5-1-2.4-1h-5.3V8.8c0-1.1-0.2-2.2-0.6-3.2c-0.4-1-1-1.9-1.8-2.7c-0.8-0.8-1.7-1.4-2.7-1.8
	c-2-0.8-4.3-0.8-6.4,0c-1,0.4-1.9,1-2.7,1.8s-1.4,1.7-1.8,2.7c-0.4,1-0.6,2.1-0.6,3.2v1.4H8c-0.9,0-1.8,0.4-2.4,1
	c-0.7,0.7-1,1.5-1,2.4V39c0,0.9,0.4,1.8,1,2.4c0.7,0.7,1.5,1,2.4,1h27.3c0.9,0,1.8-0.4,2.4-1c0.6-0.6,1-1.5,1-2.4V13.7
	C38.7,12.8,38.3,11.9,37.7,11.3z M16.3,8.8c0-0.7,0.1-1.4,0.4-2s0.7-1.2,1.2-1.7c0.5-0.5,1.1-0.9,1.7-1.2c1.3-0.5,2.8-0.5,4.1,0
	c0.6,0.3,1.2,0.7,1.7,1.2c0.5,0.5,0.9,1.1,1.2,1.7c0.3,0.6,0.4,1.3,0.4,2v1.4H16.3V8.8z M35.7,39c0,0.1,0,0.2-0.1,0.3
	c-0.1,0.1-0.2,0.1-0.3,0.1H8c-0.1,0-0.2,0-0.3-0.1c-0.1-0.1-0.1-0.2-0.1-0.3V13.7c0-0.1,0-0.2,0.1-0.3s0.2-0.1,0.3-0.1h5.3v2.4
	c0,0.8,0.7,1.5,1.5,1.5s1.5-0.7,1.5-1.5v-2.4h10.7v2.4c0,0.8,0.7,1.5,1.5,1.5s1.5-0.7,1.5-1.5v-2.4h5.3c0.1,0,0.2,0,0.3,0.1
	c0.1,0.1,0.1,0.2,0.1,0.3V39z"/>
</svg>
