<?xml version="1.0" encoding="utf-8"?>
<!-- Generator: Adobe Illustrator 27.9.0, SVG Export Plug-In . SVG Version: 6.00 Build 0)  -->
<svg version="1.1" id="Layer_1" xmlns="http://www.w3.org/2000/svg" xmlns:xlink="http://www.w3.org/1999/xlink" x="0px" y="0px"
	 viewBox="0 0 43 43" style="enable-background:new 0 0 43 43;" xml:space="preserve">
<path d="M12,4c1.6-1.3,3.7-2,5.9-2c1.3,0,2.3,0.4,3.1,1.1c0.2,0.2,0.4,0.4,0.6,0.6c0.2-0.2,0.4-0.4,0.6-0.6C22.8,2.4,23.9,2,25.1,2
	c2.1,0,4.2,0.7,5.9,2c1.3,1,2.3,2.3,2.6,4c0.8,0.1,1.5,0.6,2.1,1.1c0.9,0.9,1.6,2.2,2,3.5s0.6,2.8,0.6,4.3c0,0.7-0.1,1.5-0.3,2.2
	l0.1,0.1c0.7,0.3,1.3,0.9,1.7,1.6c0.8,1.3,1.1,3.3,1.1,5.7c0,2.8-1.1,4.7-2.5,5.9c-0.7,0.6-1.6,1.1-2.5,1.3c-0.3,1.5-1,3-2,4.2
	c-1.4,1.8-3.6,3.3-6.6,3.3c-2.4,0-4.2-1.3-5.4-2.6c-0.2-0.2-0.4-0.5-0.6-0.7c-0.2,0.2-0.4,0.5-0.6,0.7c-1.2,1.3-3.1,2.6-5.4,2.6
	c-2.9,0-5.1-1.5-6.6-3.3c-1-1.2-1.7-2.6-2-4.2c-0.9-0.3-1.8-0.7-2.5-1.3C3.1,31,2,29.1,2,26.3c0-2.5,0.3-4.4,1.1-5.7
	C3.6,19.9,4.2,19.3,5,19c-0.2-0.7-0.3-1.5-0.3-2.2c-0.1-1.4,0.1-2.9,0.6-4.3c0.4-1.3,1.1-2.6,2-3.5c0.6-0.6,1.3-1,2.1-1.1
	C9.8,6.3,10.8,4.9,12,4z M13.8,6.3c-1.1,0.8-1.7,1.9-1.7,3.2c0,0.2-0.1,0.5-0.2,0.7c0,0.1-0.2,0.3-0.4,0.5c-0.2,0.1-0.4,0.2-0.6,0.2
	c-0.2,0-0.5,0-0.7-0.1c-0.3-0.1-0.6-0.1-1,0.3c-0.4,0.5-0.9,1.3-1.2,2.3s-0.5,2.1-0.4,3.2c0,1.1,0.3,2,0.7,2.6
	c0.1,0.1,0.1,0.2,0.2,0.3h2.1c1.4,0,2.8,0.5,3.8,1.5s1.7,2.3,1.8,3.7c0.8,0.3,1.5,1,2,1.7c0.4,0.8,0.6,1.7,0.4,2.6s-0.6,1.7-1.3,2.3
	c-0.7,0.6-1.6,0.9-2.5,0.9s-1.8-0.3-2.5-0.9c-0.8-0.5-1.3-1.3-1.5-2.2s0-1.8,0.4-2.6c0.4-0.8,1.1-1.4,2-1.8
	c-0.1-0.6-0.4-1.2-0.9-1.6s-1.1-0.6-1.7-0.6H5.4c-0.3,0.7-0.5,1.9-0.5,3.8c0,2,0.7,3.1,1.4,3.7c0.8,0.7,1.7,0.8,1.9,0.8
	c0.4,0,0.8,0.2,1,0.4c0.3,0.3,0.4,0.6,0.4,1c0,0.8,0.5,2.3,1.5,3.6c1,1.2,2.4,2.2,4.3,2.2c1.2,0,2.4-0.7,3.3-1.7
	c0.4-0.5,0.8-0.9,1-1.3c0.1-0.1,0.2-0.3,0.2-0.5l0,0V16.1h-1.7c-0.3,0.8-1,1.5-1.8,2c-0.8,0.4-1.7,0.6-2.6,0.4s-1.7-0.6-2.3-1.3
	c-0.6-0.7-0.9-1.6-0.9-2.5s0.3-1.8,0.9-2.5c0.7-0.7,1.5-1.2,2.4-1.4s1.8,0,2.6,0.4c0.8,0.4,1.4,1.1,1.8,2H20v-5V8.1
	c0-0.6-0.2-1.2-0.4-1.8c-0.2-0.5-0.4-0.8-0.7-1.1c-0.2-0.2-0.6-0.4-1.1-0.4C16.4,4.9,14.9,5.4,13.8,6.3L13.8,6.3z M23,31.3v3.4l0,0
	c0,0.1,0.1,0.3,0.2,0.5c0.2,0.4,0.6,0.9,1,1.3c0.9,1,2.1,1.7,3.3,1.7c1.9,0,3.3-0.9,4.3-2.2s1.5-2.8,1.5-3.6c0-0.4,0.2-0.8,0.4-1
	c0.3-0.3,0.6-0.4,1-0.4c0.2,0,1.1-0.2,1.9-0.8c0.7-0.6,1.4-1.7,1.4-3.7c0-2.4-0.3-3.6-0.7-4.2c-0.1-0.2-0.3-0.4-0.5-0.5
	s-0.5-0.2-1-0.2c-0.3,0-0.5-0.1-0.8-0.2c-0.2-0.1-0.4-0.3-0.5-0.6c-0.1-0.2-0.2-0.5-0.2-0.8s0.1-0.5,0.2-0.7
	c0.4-0.6,0.7-1.5,0.7-2.6s-0.1-2.2-0.4-3.2c-0.3-1-0.8-1.8-1.2-2.2s-0.7-0.4-1-0.3c-0.2,0.1-0.5,0.1-0.7,0.1s-0.4-0.1-0.6-0.3
	c-0.2-0.1-0.3-0.3-0.4-0.5s-0.2-0.4-0.2-0.7c0-1.3-0.6-2.4-1.7-3.2s-2.6-1.3-4.1-1.3c-0.5,0-0.9,0.2-1.1,0.4
	c-0.3,0.3-0.5,0.7-0.7,1.1c0,0.4-0.1,1-0.1,1.7v20.1h1.2c0.7,0,1.4-0.3,1.9-0.8s0.8-1.2,0.8-1.9v-3.5c-0.8-0.3-1.5-1-2-1.8
	s-0.6-1.7-0.4-2.6s0.6-1.7,1.3-2.3c0.7-0.6,1.6-0.9,2.5-0.9s1.8,0.3,2.5,0.9s1.2,1.4,1.3,2.3c0.2,0.9,0,1.8-0.4,2.6s-1.1,1.4-2,1.8
	v3.5c0,1.5-0.6,2.9-1.6,3.9s-2.5,1.6-3.9,1.6L23,31.3L23,31.3z M14.7,13.7c-0.3,0-0.5,0.1-0.7,0.3s-0.3,0.4-0.3,0.7s0.1,0.5,0.3,0.7
	s0.4,0.3,0.7,0.3s0.5-0.1,0.7-0.3s0.3-0.4,0.3-0.7s-0.1-0.5-0.3-0.7S14.9,13.7,14.7,13.7z M13.7,28.3c0,0.3,0.1,0.5,0.3,0.7
	s0.4,0.3,0.7,0.3s0.5-0.1,0.7-0.3c0.2-0.2,0.3-0.4,0.3-0.7c0-0.3-0.1-0.5-0.3-0.7s-0.4-0.3-0.7-0.3s-0.5,0.1-0.7,0.3
	C13.8,27.8,13.7,28.1,13.7,28.3z M27.3,18.6c0,0.3,0.1,0.5,0.3,0.7c0.2,0.2,0.4,0.3,0.7,0.3c0.3,0,0.5-0.1,0.7-0.3
	c0.2-0.2,0.3-0.4,0.3-0.7s-0.1-0.5-0.3-0.7c-0.2-0.2-0.4-0.3-0.7-0.3c-0.3,0-0.5,0.1-0.7,0.3C27.4,18.1,27.3,18.3,27.3,18.6z"/>
</svg>
