<?xml version="1.0" encoding="utf-8"?>
<!-- Generator: Adobe Illustrator 27.9.0, SVG Export Plug-In . SVG Version: 6.00 Build 0)  -->
<svg version="1.1" id="Layer_1" xmlns="http://www.w3.org/2000/svg" xmlns:xlink="http://www.w3.org/1999/xlink" x="0px" y="0px"
	 viewBox="0 0 43 43" style="enable-background:new 0 0 43 43;" xml:space="preserve">
<path d="M40.3,27.5H39v-0.1c0-6.3-3.4-11.9-8.4-14.9h6.3c0.4,0.7,1.2,1.2,2.2,1.2c1.4,0,2.5-1.1,2.5-2.5s-1.1-2.5-2.5-2.5
	c-0.9,0-1.7,0.5-2.2,1.2H25.3V8.7c0-0.7-0.6-1.2-1.2-1.2h-5c-0.7,0-1.2,0.6-1.2,1.2v1.2H6.2C5.7,9.3,4.9,8.7,4,8.7
	c-1.4,0-2.5,1.2-2.5,2.6s1.1,2.5,2.5,2.5c0.9,0,1.7-0.5,2.2-1.2h6.3c-5,3.1-8.4,8.6-8.4,14.9l0,0H2.7c-0.6,0-1.2,0.6-1.2,1.2v5
	c0,0.7,0.6,1.2,1.2,1.2h5c0.7,0,1.2-0.6,1.2-1.2v-5c0-0.7-0.6-1.2-1.2-1.2H6.5v-0.1c0-7,4.8-12.8,11.2-14.5v0.8
	c0,0.7,0.6,1.2,1.2,1.2h5c0.7,0,1.2-0.6,1.2-1.2v-0.8c6.6,1.7,11.4,7.6,11.4,14.5v0.1h-1.2c-0.7,0-1.2,0.6-1.2,1.2v5
	c0,0.7,0.6,1.2,1.2,1.2h5c0.7,0,1.2-0.6,1.2-1.2v-5C41.5,28.1,40.9,27.5,40.3,27.5z M6.5,32.5H4V30h2.5V32.5z M22.7,12.5h-2.5V10
	h2.5V12.5z M39,32.5h-2.5V30H39V32.5z"/>
</svg>
