<svg width="602" height="595" viewBox="0 0 602 595" fill="none" xmlns="http://www.w3.org/2000/svg">
<path d="M1 593.994V5.94598M151.31 592.756V4.70807M76.1551 592.762V4.71393M226.465 591.524V3.47595M26.0517 594V5.9519M176.362 592.762V4.71393M101.207 592.768V4.71985M251.517 591.53V3.48187M51.1034 594V5.9519M201.414 592.762V4.71393M126.258 592.768V4.71985M276.569 591.53V3.48187M301.62 591.518V3.47009M451.931 590.28V2.23212M376.775 590.286V2.23798M527.086 589.048V1M326.672 591.524V3.47595M476.982 590.286V2.23798M401.827 590.292V2.2439M552.137 589.054V1.00592M351.724 591.524V3.47595M502.034 590.286V2.23798M426.879 590.292V2.2439M577.189 589.054V1.00592M600.994 584.085H6.00439M599.741 435.528H4.75177M599.747 509.806H4.75775M598.495 361.25H3.50513M601 559.325H6.01031M599.747 410.769H4.75775M599.753 485.047H4.76367M598.501 336.49H3.51117M601 534.566H6.01031M599.747 386.009H4.75775M599.753 460.287H4.76367M598.501 311.731H3.51117M598.489 286.971H3.49921M597.236 138.415H2.24658M597.242 212.693H2.2525M595.99 64.1365H1M598.495 262.212H3.50513M597.242 113.655H2.2525M597.248 187.934H2.25854M595.996 39.3771H1.00592M598.495 237.453H3.50513M597.242 88.896H2.2525M597.248 163.174H2.25854M595.996 14.6177H1.00592" stroke="url(#paint0_radial_1263_305)" stroke-linecap="round"/>
<defs>
<radialGradient id="paint0_radial_1263_305" cx="0" cy="0" r="1" gradientUnits="userSpaceOnUse" gradientTransform="translate(301 297.5) rotate(90) scale(296.5 300)">
<stop stop-color="white" stop-opacity="0.28"/>
<stop offset="1" stop-color="white" stop-opacity="0"/>
</radialGradient>
</defs>
</svg>
