<svg width="167" height="106" viewBox="0 0 167 106" fill="none" xmlns="http://www.w3.org/2000/svg">
<path d="M165.079 19.8C165.625 21.3849 167.477 24.5493 166.254 26.0538C164.604 28.0852 162.906 25.8509 161.807 24.4257C159.645 21.6233 158.32 16.165 155.484 14.2533C150.428 41.0294 136.616 64.5165 115.267 81.5075C94.0332 98.4071 64.9724 110.278 37.4695 104.42C24.0082 101.552 11.4042 95.0327 3.47229 83.3512C2.79166 82.3488 -0.802242 77.5497 1.5968 76.9693C2.84743 76.6667 7.40181 82.8736 8.38729 83.8548C13.5099 88.9566 19.2271 92.8781 25.8668 95.6918C48.4909 105.279 75.2169 99.5739 95.7681 87.8869C109.382 80.1448 121.557 69.1734 130.91 56.5266C135.738 49.9989 140.042 42.8688 143.143 35.337C145.759 28.9844 150.308 18.6367 149.342 11.6002C143.87 14.4593 141.007 22.774 135.967 26.4368C133.298 28.3774 129.376 28.0921 130.281 23.9893C131.015 20.6631 135.839 17.0572 138.079 14.6368C140.577 11.936 143.15 9.33168 145.89 6.87725C147.9 5.07681 151.461 0.375421 154.31 0.52007C159.347 0.775828 163.547 15.7824 165.079 19.8C164.44 18.1238 165.65 21.4569 165.079 19.8Z" fill="#EE5253"/>
</svg>
