<svg width="37" height="355" viewBox="0 0 37 355" fill="none" xmlns="http://www.w3.org/2000/svg">
<path d="M15.3188 329.147C15.5556 325.808 15.2966 307.398 21.4769 313.081C26.329 317.543 21.414 329.739 23.2137 335.587C26.4336 333.7 28.8282 330.68 32.631 329.998C37.0845 329.2 38.2098 331.114 35.654 334.992C33.6628 338.012 30.1215 340.337 27.9433 343.508C25.5303 347.021 22.9671 352.354 18.9414 353.724C15.1374 355.018 13.2482 352.765 10.8841 349.825C8.05062 346.302 3.45218 343.314 1.15112 339.419C-1.0376 335.713 -0.1161 333.078 4.0118 333.458C7.59975 333.788 11.6672 337.868 14.5892 339.897C14.8107 339.167 15.9385 329.218 15.3188 329.147C15.4243 329.159 15.5834 325.418 15.3188 329.147Z" fill="#6C5CE7"/>
<path d="M13.7752 235.347C13.4422 231.54 14.3153 227.437 14.7258 223.661C15.146 219.796 14.9912 212.832 16.3846 209.516C20.378 200.013 24.1281 213.656 23.8202 218.512C23.3986 225.157 23.9453 234.21 22.333 240.591C19.7664 250.747 13.7733 241.721 13.7752 235.347C13.7748 236.336 13.4779 231.947 13.7752 235.347Z" fill="#6C5CE7"/>
<path d="M16.8183 178.815C16.8183 174.045 15.5025 159.897 18.4802 156.216C24.1386 149.222 25.3139 165.409 25.4389 167.925C25.7224 173.634 26.3274 186.703 23.2992 191.347C17.2266 200.661 16.8183 182.694 16.8183 178.815Z" fill="#6C5CE7"/>
<path d="M21.0652 274.859C21.0652 280.118 21.8154 292.742 17.1294 295.96C11.8434 299.591 12.3206 288.12 12.45 284.831C12.6593 279.504 10.444 265.804 14.4199 261.701C20.976 254.936 21.0652 271.376 21.0652 274.859Z" fill="#6C5CE7"/>
<path d="M25.5711 14.7736C25.5711 20.0334 26.3213 32.6571 21.6353 35.8755C16.3493 39.5057 16.8265 28.0351 16.9558 24.7463C17.1652 19.4189 14.9499 5.71899 18.9258 1.61627C25.4819 -5.14873 25.5711 11.2906 25.5711 14.7736Z" fill="#6C5CE7"/>
<path d="M18.8025 128.758C18.8025 124.533 18.9512 120.355 19.2187 116.14C19.4015 113.263 18.3927 105.497 19.7829 103.397C24.9875 95.5337 25.4778 113.819 25.6007 116.308C25.9574 123.523 27.6136 132.818 25.4998 139.746C24.2568 143.819 22.1439 146.304 19.7553 141.874C17.9017 138.436 18.8025 132.574 18.8025 128.758Z" fill="#6C5CE7"/>
<path d="M19.076 73.4241C19.076 69.1994 19.2246 65.0208 19.4921 60.8065C19.6749 57.9288 18.6662 50.163 20.0563 48.0628C25.2609 40.1997 25.7512 58.4852 25.8742 60.9741C26.2308 68.1892 27.887 77.4842 25.7733 84.4118C24.5303 88.4849 22.4174 90.9705 20.0287 86.5398C18.1751 83.1021 19.076 77.2403 19.076 73.4241Z" fill="#6C5CE7"/>
</svg>
