<svg width="131" height="132" viewBox="0 0 131 132" fill="none" xmlns="http://www.w3.org/2000/svg">
<path d="M118.723 33.4937C123.214 30.6868 134.863 26.8738 128.257 20.8874C123.205 16.3093 119.532 10.0474 114.665 5.19884C112.853 3.39338 109.995 -0.0230475 107.066 0.812922C104.661 1.49919 104.134 3.80723 104.907 5.93549C107.436 12.9026 117.236 15.6014 120.265 21.9342C112.358 22.3992 103.901 19.5244 95.9549 19.0402C87.5424 18.5275 79.1811 18.0054 70.7456 18.3288C63.8182 18.5945 54.2892 18.8498 50.3011 25.649C46.3731 32.3459 50.6889 41.2935 53.8246 47.3978C55.6156 50.8845 57.3696 54.4291 59.2165 57.8617C60.9964 61.1697 63.3296 65.298 62.9464 69.2547C62.2574 76.3686 48.3759 76.5574 43.0227 76.8201C34.3501 77.2458 25.6913 77.5816 17.0399 78.4554C10.4261 79.1234 2.06672 80.8494 0.929669 88.5913C-0.268939 96.7529 5.6132 105.047 10.2538 111.176C15.3355 117.886 22.1875 124.803 29.4138 129.202C30.2548 129.714 36.8364 133.092 35.6461 129.682C35.5125 129.3 32.7811 128.126 32.2681 127.755C30.3718 126.385 28.6872 124.882 26.9544 123.311C21.9837 118.805 17.7149 113.98 13.6675 108.863C10.0797 104.326 2.12381 93.5069 6.22729 87.2799C8.32929 84.0902 13.3233 84.0749 16.6516 83.679C21.1639 83.1422 25.7169 83.1949 30.2521 83.0468C41.0266 82.6949 65.4915 85.7172 69.3341 71.5893C71.3506 64.175 65.9305 55.3574 62.652 49.0522C60.1596 44.2587 51.7815 31.6692 58.64 27.5766C62.1638 25.4739 67.6639 25.805 71.6101 25.7955C76.4413 25.7838 81.2634 25.7725 86.0945 25.8791C91.1952 25.9915 96.2928 26.1479 101.391 26.3462C106.233 26.5347 111.59 25.8616 116.349 26.5924C113.966 29.5147 103.794 32.7981 103.986 37.1875C104.264 43.5362 116.671 34.7767 118.723 33.4937Z" fill="#2ECC71"/>
</svg>
